<svg id="Layer_1" data-name="Layer 1" xmlns="http://www.w3.org/2000/svg" viewBox="0 0 24 24"><defs><style>.cls-1{fill:#6b6b6b;}</style></defs><title>Artboard 1</title><path class="cls-1" d="M16,2H8A6,6,0,0,0,2,8V16A6,6,0,0,0,8,22H16A6,6,0,0,0,22,16V8A6,6,0,0,0,16,2ZM20,16A4,4,0,0,1,16,20H8A3.94,3.94,0,0,1,4,16V8A3.93,3.93,0,0,1,8,4H16A3.94,3.94,0,0,1,20,8V16Z"/><path class="cls-1" d="M12,6.82A5.17,5.17,0,1,0,17.15,12,5.16,5.16,0,0,0,12,6.82Zm0,8.32a3.16,3.16,0,0,1,0-6.31h0a3.16,3.16,0,1,1,0,6.31Z"/><circle class="cls-1" cx="17.16" cy="6.86" r="1.24"/></svg>