<svg id="Layer_1" data-name="Layer 1" xmlns="http://www.w3.org/2000/svg" viewBox="0 0 24 24"><defs><style>.cls-1{fill:#6b6b6b;}</style></defs><title>Artboard 1</title><path class="cls-1" d="M17,9a3.88,3.88,0,0,1-1.18.31,2,2,0,0,0,.9-1.11,4.07,4.07,0,0,1-1.3.49A2.06,2.06,0,0,0,13.92,8a2,2,0,0,0-2.05,2,1.76,1.76,0,0,0,.06.46A5.84,5.84,0,0,1,7.7,8.37a1.94,1.94,0,0,0-.28,1,2,2,0,0,0,.91,1.68,2.07,2.07,0,0,1-.93-.26v0a2,2,0,0,0,1.65,2,2.08,2.08,0,0,1-.93,0A2.07,2.07,0,0,0,10,14.26a4.19,4.19,0,0,1-2.55.86,3.91,3.91,0,0,1-.49,0,5.83,5.83,0,0,0,3.14.91A5.75,5.75,0,0,0,16,10.25V10A4.07,4.07,0,0,0,17,9Z"/><path class="cls-1" d="M6,4A2,2,0,0,0,4,6V18a2,2,0,0,0,2,2H18a2,2,0,0,0,2-2V6a2,2,0,0,0-2-2ZM6,2H18a4,4,0,0,1,4,4V18a4,4,0,0,1-4,4H6a4,4,0,0,1-4-4V6A4,4,0,0,1,6,2Z"/></svg>