<svg id="Layer_1" data-name="Layer 1" xmlns="http://www.w3.org/2000/svg" viewBox="0 0 24 24"><defs><style>.cls-1{fill:#6b6b6b;}</style></defs><title>Artboard 1</title><path class="cls-1" d="M14.92,8.53H9.08A2.07,2.07,0,0,0,7,10.58v2.89a2.06,2.06,0,0,0,2.08,2h5.84a2.07,2.07,0,0,0,2.08-2V10.58A2.06,2.06,0,0,0,14.92,8.53Zm-1.4,3.64-2.74,1.29a.11.11,0,0,1-.14-.06.06.06,0,0,1,0,0V10.7a.11.11,0,0,1,.11-.11h0L13.52,12A.11.11,0,0,1,13.52,12.17Z"/><path class="cls-1" d="M6,4A2,2,0,0,0,4,6V18a2,2,0,0,0,2,2H18a2,2,0,0,0,2-2V6a2,2,0,0,0-2-2ZM6,2H18a4,4,0,0,1,4,4V18a4,4,0,0,1-4,4H6a4,4,0,0,1-4-4V6A4,4,0,0,1,6,2Z"/></svg>