<svg xmlns="http://www.w3.org/2000/svg" viewBox="0 0 600 600"><defs><style>.cls-1,.cls-2,.cls-3{fill:none;}.cls-1,.cls-2,.cls-3,.cls-4{stroke:#2861bc;stroke-miterlimit:10;}.cls-1{stroke-width:7px;}.cls-2,.cls-3,.cls-4{stroke-width:5px;}.cls-3{stroke-linecap:round;}.cls-4{fill:#2861bc;}</style></defs><title>Artboard 2</title><g id="Layer_2" data-name="Layer 2"><path class="cls-1" d="M108.69,68.33c8.71.4,5.91,32.68,8.34,33s16-11.47,21.21-5.56S125.38,118.74,124.68,126s16,41.37,42.07,49.71,52.14,10.43,60.83,7.65,19.31-10.81,25-16.69c6.43-6.6,7.65-19.46-.35-33.72S236.62,98.92,240.1,72.85s24.68-58,38.24-62.92A85.34,85.34,0,0,1,305.8,5.41s25-.69,38.24,5.56,31.27,46,33.37,60.49c2.78,19.12-5.91,49.37-12.86,60.14s-11.82,18.08-11.82,22.6.18,16.84,5.91,20.86c7.48,5.24,19.82,17.73,36.15,19.12s33,4.52,60.49-15.65,33-30.59,31.64-37.54-11.82-18.77-12.17-25.38,5.61-9.73,12.36-4.87,9.89,6.61,10.24-.69,2.08-23.64,8-26.07,11.47.69,11.47,9.73-2.43,13.21,0,13.21,5.91-14.25,11.82-15.3,8.69,7.65,5.56,16.69c0,0,5.57-2.78,10.78-.35s-2.43,17.73-1.39,17.73,10.43-4.52,13.91-2.78,5.56,8.69-5.57,19.47-24,18.42-25.72,21.9-12.86,47.47-47.28,70.07-81.35,29.35-84.82,31.79-2.43,108.11,5.91,137,29.55,47.63,41,53.89,14.6,6.95,12.86,25-.69,43.45-17.38,65.35-28.16,19.47-40.33,13.56-16.33-20.86-17-32.33S381.58,508.09,376,505s-16-.35-35.11-23.64S323.88,440,318,439.26s5.56.69-18.08,1.74-16.51-3.13-20.34,2.78-11.82,37.54-26.42,55.62-22.94,30.35-22.94,35.16,11.12,34.36,8.34,49.31-22.25,15-45.19,2.78S156.49,540.77,156.49,522s10.43-18.07,20.16-30.94,18.43-12.16,16-65.7,1.21-139,14.07-168.6c0,0,1.33-3.87-1.56-4.35-9.54-1.56-48.49-10.25-73.18-31.8-29.8-26-40-41-43.8-60.49S64.37,121.35,63.33,120.3s-14.08-16.16-6.44-17.9,17,9.39,18.78,8.34-11-16.51-6.78-23.63c4.59-7.86,12.64,12.25,17.38,11,5-1.39-7.13-22.43-.52-24.16,4.78-1.26,9.64,11.54,12.32,16.47,0,0,3.15,2.3,3.84-2.22S101,68,108.69,68.33Z"/><path class="cls-2" d="M249.89,169.33s7.85,26.37,31.05,28.84c8,.86,17.38-1.75,26.44-1.56,17.14.36,33.2,2.69,37.12.95,12.64-5.6,14.14-22.5,14.14-22.5"/><path class="cls-2" d="M236.9,179s12,37.17,27.62,48.65c6.89,5.05,75.34,8,85,6.17s19.85-34.76,23.35-48.1"/><path class="cls-2" d="M395.65,376s-19.16,2.69-47.44,2.61c-50.5-.15-127.26-4.71-155.74-17.75"/><path class="cls-2" d="M189.28,473.28S207,507.2,248.4,505.34"/><path class="cls-2" d="M418.57,437.59s-6.49,31.72-69.06,53.11"/><path class="cls-3" d="M167.79,517.56a101.33,101.33,0,0,0,16.69,42.24c14.34,20.6,34.15,22.68,44.84,20.08"/><path class="cls-3" d="M440.51,468.28s4.43,30.77-4.17,55.28-20.6,27.11-27.9,28.16"/><path class="cls-3" d="M110.78,112.83s-16.49,8.46-24,17.73"/><path class="cls-3" d="M501.86,123.61S521,134,530.37,147.25"/><path class="cls-4" d="M353.69,38.22C346,27.53,323.44,21.4,298.28,23.88a51.36,51.36,0,0,0-24.38,8.86C262.3,41,253.7,51.26,251.48,71.85s2.09,40.94,10.82,56.45,15.25,21.77,27.12,22.81,40.93,2.35,51.75-6S365,114.74,367.11,92.06,361.38,48.91,353.69,38.22ZM254.5,79.75C254,55.5,273.5,38,273.5,38c13.5-11.76,63.25-6.5,63.25-6.5-6.42,10-21.58,13.08-44.58,21.33S254.5,79.75,254.5,79.75Zm72,64.25c-13.5,2.75-39.5,0-39.5,0,2.52-6.29,40.92-11.25,51.67-17.5a173.9,173.9,0,0,0,18.08-12C352.5,125.5,340,141.25,326.5,144Z"/></g></svg>