<svg id="Earth" xmlns="http://www.w3.org/2000/svg" viewBox="0 0 600 600"><defs><style>.cls-1{fill:none;stroke:#2861bc;stroke-miterlimit:10;stroke-width:5px;}</style></defs><title>Artboard 1</title><path class="cls-1" d="M580.33,388.75c.62-4.81,0-12.08-.26-15.79a53.15,53.15,0,0,0-1.47-7.74c-.37-1.11-3.28-.25-4.15,2s-6.19,7.53-6.68,9.88-6.32,11-10.15,17.79-3.22,9.26-3.72,12.85-1.85,6.42-3.46,10.62-3.35,4.94-4.46,4-.87-4.44-.74-6.79-1.12-.37-1.37-5.19a97.8,97.8,0,0,0-1.61-11.61s-.49-10.13-.37-14.83,1.37-6.05.87-7.9-1.36,2-1.61,4.32-2.6,4.08-4.41,3.58-4.5-5.19-3-5.56,3.34-2.1,3-3.7-.37,1.6-3.46.62-3.1-3.09-4.71-4.7-1-3.33-1.48-4.57-4.58.62-8.17,1.73-6.69,2.35-12.26.86-6.69-.24-8.05-.24-1.36-3.21-1.61-5.07-2.23-1.6-4.33,0-3.47,1.24-6.44,1-2.48-1.85-4.95-2.47-2.73-1.24-5.57-3.71-2.23-5.31-3.84-7.29-2.72.13-5.08-.61-4.7-1.49-3,.12.25,1.36-.25,3.21,1.86,4.82,3.35,6.8,1.61,1.11,3.59,3.46,1.85,3.7,1.73,4.81.62,1.61,2.11,4,2.35-.13,3.21,2.47.5,2.72,2.85,1.85,3.22.25,6.32-.86,1.36-2.23,4-5.44,2.47-4.08,3.46-4.82.5,2.6.5,4.45.62,6.18,3.84,6,4.45,1,5.45,3.09,2,3.46,0,6.18-3.47,8.28-5.7,10.75-6.19,7.29-8.29,8.89a21.88,21.88,0,0,1-8,3.71c-2.85.62-3.59,4.45-8.17,6.67s-13.25,7.54-17.46,8.77-7.43,4.33-8.67,4.45-3-.26-3.09-5.68-1.12-5.81-1.36-9.64-3-5.44-5.2-7.78-.5-3.71-4.21-6.92-2.6-1.61-4-4.2-.75-4.2-.75-6.92-.24-5.68-4-7.41-3.09-1-3.34-3.34-2.85-5.93-6.07-10.75S411,362,410.16,363s-.61,1.35-3.46-1.12-3.84-6.67-5.33-6.42,4.71,7.41,5.82,11.24,4.46,9.14,6.81,12.73-.25,2.84.37,6.42,4.34,2.35,5.82,4.94,1.61,8.65,2,10.87,3.22,4.2,5,5.56,2.35,8,3.59,10.38,4.33,2,7.42,4.57,4,4.45,5.58,5.56,1.36,2.22,1.36,4.2.37,5.81,4.58,5.19,8.79-3.71,15.35-5.68,7.3-3.22,9.29-3.46-.38,3.46-1.61,8.89-9,19.27-17,25.95-16.59,11.61-24.38,19.89-10.65,12-11.4,14.45-1.73,7.78.5,11.61,2,3,.74,10.38-4.58,8.77-10.64,12.35-13,7.42-15,8.9.61,3.71-.25,7.54-6.69,5.06-9.54,6.67-2.22,2-3,3.7-5.69,5.93-14,10.75S354,576.47,347,576.47s-10.52,2.47-15.47,2.23-4.58-1.11-4.46-2.23a5.82,5.82,0,0,0-.49-3.83c-.87-2.22-3-3.83-7.06-6.79s-1.61-11-5-14.58a57.21,57.21,0,0,1-6.94-8.77c-1-1.73.87-8.28,2.48-10.75s5.2-3.7,6.68-6.67-1.36-5.68-2.1-8.89-2.23-10.26-4.21-13.35S302,495.68,300,493.58s-2.85-4.94-1.36-7.66a28.74,28.74,0,0,0,2.72-10.38c.25-3.33-2.35-6.18-3.84-6.67s-10.15,1.11-14,0-2.72-4.32-4-6.3-5.2-1.85-8.17-1.85-8.3,2-12,3.95-5.45,2.47-10,1.23-5.69-1.72-12.5-1.23-6.32,3.09-12.76.86-8.91-5.8-15.1-9.14-4.58-3.58-5.94-7-4-4.94-7.43-8.52-5.32-4.82-6.69-6.55a14.24,14.24,0,0,1-2.47-7.29c-.13-2.47-1.49-9.14-.25-12s1.36-5.81,1.49-8.9-1.74-3.58-1.74-6.3-.62-2.47-1.36-2.84-.62-3,0-5.56,3.59-7.78,5.82-11.74,5.57-7,7.06-9.76,4.95-5.31,8.17-6.54,2.1-1.73,5.82-4.82,2.22-6.18,2.22-8.77,1.24-3.34,2.2-4.33,0-3.21,1.89-5.19,6.93-3.83,9.41-5.8,2.48-7.54,2.72-8.16,2.73-1.23,2.73-.37,1.11,1.36,5,2.47,3.47-1.36,6.19-.12,2.1,1.24,5.57.25,0,0,1.61-1.24a30,30,0,0,1,12.38-5.68,94.1,94.1,0,0,1,18.32-1.85c4,0,11,.37,12.38-.5s1.86-1.11,4.71-1.23a3.55,3.55,0,0,1,3.71,4.69c-.74,2.35,1.49,1.36,2.36,3.21s.74,3-.5,5.07-4.7,3.46-3.59,4.57,7.18,4.94,14.36,5.93,6.44,1,8.54,2,.5,2.1,2.36,4.44,1.48.62,8.17,3,2.72,2.72,7.43,3.58,3.59-2,4.58-3.83-1.24-5.43-.13-7.16,4.21-3.71,10.53-2.35,8.79,4.32,14.36,5.68,11.64,2,15,3,4.7-2.23,9.16-3.09,4.46,1.6,7.06.86,4,.62,5.07,0,2.6-5.93,3.59-8.52,3.35-5.56,3.59-9.14-.62-9.27-1.48-9.52-3.72-1.48-4.83-.86-3.59,3.46-6.31,3.58-3-.37-4.71-2-3.22-1.61-5.45-2,0,1.6-1.11,2.72-2.48,1.23-4.21,1.36-6.56-1.24-8.67-2.6-3.22-5.68-4.82-8.52-1.74-5.19-2.36-8,1.12-4.2-.12-5.93-3-1.12-5.57-1.12-2.6,1.49-4.21,1.73,1.86,2,.12,3-2.47-.5-3.59-1.48-2.23-.62-2.31,1.48,2.44,3.09,3.18,4.69-.87.74-1.61,2,2.1,1.24,4.08,3,1.61,3.21.5,3.7-2.11-.12-3,.13,1.86,1.11,2,2.59-1-.62-2.48-.74,1.36,2.1,1.49,4.2-3.1.12-5.45-.25-1.36-3.83-3.84-5.68.25-1.85-1.85-6.05-3.84-5.44-6.44-7.54-1.12-1.73-.74-5.44,1-2.22-3.72-6.54-6.31-4.82-11-8.16-6.93-7.66-8.91-8.65.25,2.72-1.61,2.72-.87-4.07-2.6-5.19-5,1.12-4.58,2.72-.62,2.47.49,4.7,3.22,3,6.32,6.79,2.23,4.32,4.83,6.05,6.81,1,6.06,2.1-.86,1.24.87,1.73a39.8,39.8,0,0,1,8.91,4.82c1.74,1.48.75,2.84.75,3.83s-3.35-1.11-5-2.1-1.85.74-2.6,2.6,1.61.74,2.6,2.1-.37,2.71-1.61,4.44-2.1,3.71-4.2,4.33-2.23,1.11-3.1,2.47,1.11,3.09.25,4.2-2.6-1-7.93-3.34-4.33-2.34-4.33-3.09,1.24-1.11,3.84-.74,6.31-.49,9-1.6,1.23.61,2-.5a7.4,7.4,0,0,0,.74-5.19c-.37-2.22-2.48-4.57-5.2-6.54s-7.43-4-14.24-8.9-6.93-8.89-7.67-10.75-4.09-3-5.95-2.84-7.67,5.19-10.27,6.67-1.61,1.73-5.57-.61-5.95-1.12-7.31.37.13,4.81-1.24,8-6.93,4.69-7.8,5.8-4.82,5.44-5.44,6.67,1.11,4.2.24,6.06-2.35,5.31-4.7,6.42-2.1,2.47-3.71,3.58-7.43-.37-9-.12a8.79,8.79,0,0,0-4.58,2.6,3.06,3.06,0,0,1-3.1,1c-1-.24-2.47-4.32-3.59-5.43s-3,.86-4.7.62-1.49-.87-4.09-.87-.37-2.22-.12-3.83-.13-3.46-1.36-3.83-1-2.22.68-7.16,1.17-7.66,1.17-12-3.22-6.79,1-8.89,10.28-1.11,14.24-.62,11.52,2.47,14.24,1.36,3.47-5.68,3.34-11.24A20.46,20.46,0,0,0,248,262.06c-.5-1-4.46-3.21-7.68-3.95s-2.72-.37-3.59-2.6.13-1.35,1-2.47,8.92.62,11.64,0,6.07-3.95,6.31-4.94,3.47-1.36,5.45-2.22.75-3.95,3.22-6.43,4.83-2.22,5.94-3.83,2.36-5.55,3.57-7.16,2.87-3,8.69-4.57,6.07-.5,7.8-1.11.25-2,0-5.07-2.72-5.56-2.6-10.25,1.86-5.56,4.33-7,5.58-4.2,5-2.6.12,2.6-.5,4.82,1.49,2.1,1.46,4.08-2,3.58-3.81,4.44-.62,1.73,0,3.46,3.09,3.59,3.81,4a14.6,14.6,0,0,0,5.72.74c2.6-.13,3.59-.5,6.32.24s4.58,2.48,5.2,1.49,5.81-4.33,10.52-5.44,5.45-1.23,4.95.62,2.72,1.48,4.71.62-.62-3,3.21-3,2.36.74,2.11-2.35-2.11-5.18-1.49-6.05,1.49-4.82,2.11-6.18,1.11-1.6,3.71-1.11,0,0,2.35,2.23,3.22.61,4.21-.62.38-6.06-1.36-5.81-2.47-2.47-2.72-5.06,1.11-2.72,5.94-3.83,6.93.61,9.53.74,2.11-.5,2.11-1.36,1.73-1.61,3.59-2.47,3.09-.62,1.49-.74-2.23-2.1-3.6-2.84-5.32-.13-13.12,1.11-5.69,2.59-7.43,2.1-2.1-2.23-4.58-3.34-2.72-.62-4-1-.12-4.57-.12-6.3-2.85-5.8-3-7.16,3.09-3.46,5.81-7,5.33-7.17,6.94-8,.74-1.24,1-3-2.11-3.46-5.82-3.46-7.43.87-8.3,3.34,1,3.58,1,5.43-1.11,3-3.46,5.07-9.41,6.79-9.91,12-.37,7.91,2.6,9.27,4.21,3.21,4.21,5.43-1.36,2.47-1.61,4.33-3.22,3.21-4.58,4.69-.12,9.51-1.11,13.1-.62,3.46-2.6,3.09a10.93,10.93,0,0,0-4.58,0c-1,.24-1.36,1.11-1.24,2.22s-.62,1.23-2,1.61-2.73.49-3.34,0-1-3.59-.87-4.58a10.44,10.44,0,0,1,.49-3c.5-1.48-.49,1.48-1.73,0a45.36,45.36,0,0,1-3.59-6.05c-.74-1.36-.25-2.48.25-3.59s-.87-1.23-2-1.23-.62-.5-.75-2.47.5-1.24.75-2.23-1.36-.49-2-1-.84-2.84-1-4.69-1.49.86-1.49,2.1,1.24,1.73,1.11,2.59-.74,1.49-2.35,1.73-2.23,1.24-3.84,2.85-1.11,1.85-4.45,3-5.45.37-7.8-1.85-2.48-5.56-3.1-6.92.13-4,.5-4.94-1-1.86-1-2.72-1.74-4.94,0-8.52,4.7-5.69,9.53-8.65,7.55-4.2,9.16-6.05,5.45-7.42,8.28-11.62,2.62-9,4.1-10.13a8.14,8.14,0,0,0,2.73-4.45c.37-1.48,0-2.47,1.73-3.46s1.86-1.35.12-1.23-5.69,2.72-7.3,3.58-1.36-.49-1.36-.49,2.84-2.35,4.45-2.72,4.58-4.08,6.69-6.05,8.42-8.78,17.7-10.75,13-2.47,21.77-1.11,9.56,3.46,9.56,3.46c-1.74-.13-2.6,1.85-5.2,1.85s-4.58-.74-4.34-.25,12,4,16.47,4.82,4.7-.12,11.88,2.59,18.2,9.76,19.07,11.49,1.86,5.93-.49,7.66-5.7,2-13.38.62-12.13-4.82-13.12-5.93a2.08,2.08,0,0,0-2.35-.49c.12,2.71,7.3,6,9.92,7.78s.6,2,.11,3.33.86,3.71,2.72,6.43,3.72,4,5.45,4.45,4.33,1.11,6.44,0,6.43-4.82,6.68-5.56-1.86-2.6-2.6-3.59.13-1.48,1-3.33a9,9,0,0,1,4.83-4.45c2-.62,3.22,1.48,5.57,1.11s5.45-2.47,7.43-4.44,4-6.06,10-9.52,6.81-3.21,8.05-3.33,1,2.34,4.95,2.47a20.33,20.33,0,0,0,8.29-1.48c1.61-.62,1,.37,2.48,1.23s2.48,1.11,3.47.25-3.1-4.33-3.72-5.19-1.11-2.47,0-2.22,1.86-.25,5.82.74,11.14,5.43,14.49,7,3.83,4.82,4.7,4.94-.12-2.59-.74-3.71-4.83-4.57-6.32-4.81-2.6-1.61-3.22-5.32-3-2.84-3.83-4.94.12-3.09,0-5.43-3.1-7.42-3.1-8.65,2.11-.74,4.95.25,8.42,1.35,11,3.46,3.1,4.94,4.09,4.94-.37-4.57,0-7.42,2-2.71,2-2.71l3.59.12c3.59.12,3.47-.62,4.7-.74s-1.23-1.85-3.34-3.58a5.2,5.2,0,0,1-1.61-5.69,4.91,4.91,0,0,1,3.72-3.21c1.61-.12,4.64,1.81,5.63,1.44.7-.27,0-2.75-2.18-5.26q-1.83-1.58-3.69-3.11l-.22-.19a295.28,295.28,0,0,0-335.4-28c-.26.31-.08.43,1.13.14,3.46-.85,8.87-4.53,10.11-4.53s-1.36,3.33.86,2.72,1.12-.37,2.85-2.72,3.1-3,3.72-1.48-2,3.21,0,3,2.47-.37,3-2.1a23.12,23.12,0,0,1,2.1-4.08c.25-.61,3.84-.24,5.08-1.73s5.82-3.21,7.92-3.58a17.91,17.91,0,0,0,5.94-2c3.22-1.48,3.47-2.59,9-2.84a76.88,76.88,0,0,1,10.9,0c1.73.25,4.83,2.1,6.68,2.23s4.09-.13,1.12,1.36-4.71,2.71-11.76,3.58S194.37,38.7,193,39.81s8.05-2.71,13-3.09,7.92-.86,6.44-.61-8.67,2.34-6.19,2.71,6.06-.33,7.67-1.59,1.24-2,3-2.11,3.59-.87,2.48.37-1.49,2.72-6.19,3.95-10.77,6.86-10.77,7.26,5.45-4.17,10.77-6,7.68-2.66,8.67-3.43A22.83,22.83,0,0,1,231,34.38c3.34-.13,7.43,2,6.31,2.87s-4.21,1.7-7.8,3.3-1,2.48-3.46,3.46,1,.25-5.08,4.33a26.17,26.17,0,0,0-9.16,11.73c-.5,1.24-3.34-.74-3.72,0s-.51,1.73,1,2.35a1.84,1.84,0,0,1,1.07,2.84c-.62.74,2.47.87,2.47.87s-1.6,4.2-2.1,4.44-3.22-2.22-5-1.85a6.8,6.8,0,0,0-4.21,3.83c-.62,1.61,2.23,1.11,3.59,1.11s2.1,4.45.49,6.3-2.6-.49-3.59,1.12-2.1,2.47-1,2.84,2.73,1.6,2.73,2.1-1.24,1.48-1.74,1.6a7.84,7.84,0,0,0-3,3.83c-.37,1.61-4.08,1-5.45,2.35s-3.46,2.35-1.73,2.59,2.11.5,1.24,1.86-.37,4.32-1.61,4.45-4.46-1.24-5-2.85,1.24-2.84-.87-2.71-1.24,4.07-.25,4.94,5.51,2.59,5.35,4.2.31,8.77-.91,8.89-6.29.62-6.29,0-1.61-6.3-2.11-6.67-1,2.47-1.36,3.71-.37,2.83-1.49,3.27a4.49,4.49,0,0,0-2.1,1.18c-.37.49,2.23,0,3.84,0s3.22,1.23,5.07.74,4.34-2.72,3.47-1-2.23,1.85-6.81,5.06-11.14,7.91-15.23,8.65a40.68,40.68,0,0,0-13.86,4.7c-4.83,2.84-7.39,7.9-10.88,10.37s-4,3.71-8.31,4.45-10.4,3.83-13.37,8.77-8.42,19.77-11.27,24-6.56,5.68-7.68,3.83.75-3.46-2.47-3.46-4.34,1.61-6.19-4.82-2.23-9.88-.62-18.41,1.48-15.56,5-20.26,7.3-5.06,8.67-7.78,5.2-5.68,3.71-5.93-1.48-.37-3.09-1.61-2.6-1.35-1.86.87,3.22,2.72,2,3.71-3.71,4.2-5.32,2.59-2.23-2-1.24-4.08A36.16,36.16,0,0,1,103,122a5,5,0,0,1,4.71-1.73c1.48.25,1.24,2.35,2.47,1.85s-.86-6.67-2.72-6-3.47,1.6-2.85-.37,1.86-.87,3.72-4.94,4.21-8.9,5.44-14,2.6-7.79.75-8.9-3.1-.62-6.07.37-5.82,3.71-5.94,2.35-.75-2.1.49-3.09-1.11-2.22,1.86-3.46.74-2.59,3.1-4.57,5.69-4.69,8.54-6.67,8.54-4.08,10.15-6.18-1.4-.2,2.56-3.42A45.32,45.32,0,0,1,141,56.85c1.56-.52,3.61-4,4.43-5.47a295.79,295.79,0,0,0-70.93,61.13c1-.46,1.72-.65,1.92-.3.75,1.23-.74,4.2-1.85,4.57a20.06,20.06,0,0,0-6.9,5.06c-1.77,2.35-1.94,2.72,0,.87s4.05-4.08,5.41-4.08,2,1.24,1.12,2.1,1,0,1,2.47a5.85,5.85,0,0,0,1.43,4c.42.74,1.44,3.08,0,4.81s-5.89,3.59-5,3.71,4-2,3.83-.86.38,2.1-1.11,2.1-4.46,0-4.21,3,1.86,3.47,3.59,5.32,3.72,5.24,3.1,5.83-4.09,1.83-4.21,3.44-2.48,1.85-3,4.32-2.11,4.08-2.6,3.4-1.61-1.91-1.12-3.15-.74-5.44-1-5.07a17.5,17.5,0,0,0-2.1,4.33c-.38,1.6-.25.68,0,4.05s.62,8.3-.62,9.91-3.22,3.83-3.47,4.94-.37-1.24-1.86-3.83S54.1,171,54.1,172.13s2.35,6.17,2,7.41,1.11,3.33-2,1.36-2.6-1.86-4.46-4.2.13-2.6,0-4.2,0-4.45-1.48-3.59-1.36-.24-3.22,1.36-2.48,1.36-2-.37,2.1-3,3.09-4.45,3.22.13,4-1.48,2.11-2.84,2.23-4.57,4.95-5.19,5.95-7.66,2-1.59,1.87-4.87-1.63-2.05-1.38-4.89-.87-2.72-.87-2.72-.08-4.39.69-5.43c-.54.31-.77,4.62-1.55,4.69a7.29,7.29,0,0,0-2.54.68,292.08,292.08,0,0,0-38.56,84.43h0c1,.74,3.57-.62,3.45,1s-3.84,9.39-4,12.85,2.38,6.05,1.19,7.78,2.28-2,2.77-6.67.5-9.51,1.86-11.74,5.82-7.41,7-13-1.23-7.53,0-9a38.66,38.66,0,0,0,5.33-11.49c1.11-4.44,2.85-7.53,3.34-9.63s2-2.7,2.72-2a1.7,1.7,0,0,0,2.6,0c1.12-.94,2-1.78,2,0s.49,2.27,0,4-.56,2.48.22,2.48,2.25-1.73,2.25,0-.37,2.34-1.61,5.8-1,5.81-.62,6.55,0,4.45-.86,5.68,2.47-3,3.09-3.83,3.84-3.21,5.08-6.79,3.59-8.28,3.71-6.8-1.24.5-.74,5.07a63.87,63.87,0,0,1,.12,13.71c-.49,3.46-.62,4.53-1.48,5.6s1,4.66,2.11,5.15,2.22,1.48,3.46,4.69-3.84,2.72-5.08,4.45-3.22,4.33-1.36,3.21a16.41,16.41,0,0,0,4.58-3.83c1.62-1.85,3.72-2,3.59-1.23s-1.7,1.73-.6,2.47,2.09-.5,2.09.49,2,1.49.74,2.35-1.73.87-1.36,2.1,1,2.84-.25,3.95-2.23,3.09-3.71,3.34-1.74-.74-3.47.86-2.85,4.7-4.83,5.44a16.22,16.22,0,0,1-6.48,1.11c-2.93,0-6.15-1-7,0s1.11,3.46-1.49,4.94a19.79,19.79,0,0,0-6.81,7.17A29.69,29.69,0,0,1,23.77,266c-.62.49,2.52-.46,4.58-5.32s7-7.53,8.29-7.66a2.6,2.6,0,0,1,1.89,4.08c-1.39,2.22-2.88.5-3.87,1.36s-.25,2.35,1.12,1.61,1.61-.5,1.36.24-2.23,5.32-.87,7.29,1.36,2.47,3.1,3,2.72,1,2.72,1.73-2,.61-3.56,2.22-2.13.25-3.37,2.47-1.74,3.09-2.11,3.34-2.84-1.12-1.48-3.71,1.11-1.36,2.47-3.34,2.36-4.2,1.49-3.45-3,3.83-4.46,3.58,1.74.74-.49,1.85-3.22,1-4.71,3-3.22,4.2-3.34,5.8,2,3.83.87,5.19-4.34.13-5.95,3.34-1.23,7.41-2.6,12.23-2.35,8.4-2,10.75-1,5.06-2.23,7.16-1.43,4-1.31,9.78,2.3,20.74,1.31,21.35c-.29.19-.15,2.95-.83-.76,3.31,18.72,10,35.08,16.69,52.41,0-1.13-1.59-.67-1.37-1.49.49-1.85,2.75-1.61,2.75-1.61A5.48,5.48,0,0,1,28,406c-.62,2,3.06,4.53,2.69,2.68s-1.83-2.44,1.39-1.57,1,2,3.22,4.69,3.22,1.49,7.06,2.72S45.68,417,48,420.32s6.07,8.89,9.54,12.35,6.19,2.6,10.4,5.69,5.32,4.2,7.92,9.63,4.21,4.2,4.21,6.43-.25,3.33-1.36,4.32-.75,1.23-1,2.35,1.36.74,2.22-.37,2.11-.25,3.79.74,2,1.23,1.79,2.4-.87,1.8-1.61,3.16,1.11,4.44.74,3.33.49-4.07,1.49-4.69,0-3.71,5.07,0,4.33,2.72,5.94,3.7.38,1.36.87,3.34,1.61,3,1.24,2.35-1.24-2.35,1-2.6,3.84,1.48,6.81,2.6a28,28,0,0,1,9.41,5.43c3.59,3.09,6.56,5.07,9.53,6.06s5.82,5.43,6.19,8.4-.12,3.95-3.25,7.53-1.33,2-2.44,3.71-2.48,1.85-1.49,3.95a27.84,27.84,0,0,1,2.72,8c.38,3,1.74,4.7,1,6.8s.75,3-.74,3.33-5.32-1.11-8.29-1.48-5.2-.12-4,2,3.53,2.79,6.75,5.54c49.62,37.92,110.15,61.42,177.48,61.42A294.73,294.73,0,0,0,579.3,395.57ZM384.65,37.1c1-.62.13-3.09,0-3.71s1.86-1.48,1.86-1.48c1.3-.73,2.84,3.21,3.09,4.07s2.35,1.73,2.31,2.92.42,2.4,2.52,2.4.74-2.4.74-2.4,3.22.42,3.22,0a2.64,2.64,0,0,1,2.11-2.34c1.73-.41,3.22.91,3.22,1.43s-2.36.71-3.59,2.23,1.73.83,2.35,1.69-1.86.62-4.09.74-1.11.62-2.35,1.22-4.46-.35-5.94-.55-2.11-.42-3.1,0-2-1.9-2.36-3.63S383.67,37.71,384.65,37.1Zm-18.81.65c1-.45.62-1.4,2.85-1.15s5.45,2.3,5.45,2.3a5.24,5.24,0,0,0,2.1-.57,2.43,2.43,0,0,1,3,.57c.75,1-1.36-.08-.74,1.32.47,1.06-1,.77-1.62.36a6.93,6.93,0,0,1-.24,2.74c-.49,1.66-1.61-.91-3-1.41s-1.36-.74-.37-1.47-.8-2.48-2.72-1.54.62,1.65-.25,1.53-1.49-.86-3.72-.74S364.85,38.21,365.84,37.75ZM308.4,39c1.11-.44,3.22.81,5,.2s5.94.37,9.41,1.11a59.34,59.34,0,0,0,6.06,1c2.48.74-2.1,3.21-2.84,4.57s-2.23,1-4.09,1.48-1.61.74-2.1-.62-2.36,0-5.58,0-1-1-3.83-1.73-2.73-1.85-4.58-3.09S307.28,39.44,308.4,39Zm-19.69,5.38c2.85-.86,5-3,6.19-1.06s-3.22,2.18-.25,2.67,1.82-2.47,3.32-1.61,3,2.52,2,3.36,2.47,2.2,2.6,1.09-4-3.09-1.61-6.92a23.08,23.08,0,0,1,4.83,2.23c1.48,1.11,1.48,3,4,3.6s3.59,1.71,5.57,2.7,4.08,1.23,4.08,1.85-2.47,1.36-1,1.61,2.6-.74,3.1,0-1.49,1,0,1.73,1.49,1.23,2.85,1a2.16,2.16,0,0,1,2.1.87,17.29,17.29,0,0,0-2.35,2c-1.24,1.23-2.85,2.84-3,1.23s2.1-2.22.49-2a20.15,20.15,0,0,0-4.24,1.49c-1,.37-1.7-.5-.59-2.35s.87-.25-.49-2.22-.37-2.23-1.49-2.85-3.09-1.6-3.83-.24.86,1.23-.62,4.2-3.35,5.31-2.85,6.79,1.73,3.83-1.49,3.34-5.86-4.08-8.07-6.43-2.45-3.33-1-4.32,2.6.07,4.08-1.7,3.59-3.61,2.85-3.86-3.1,3.46-4,2.1-1.78-2.59-2-.86,3.82,1.55,0,2.62-2.2,1.21-4.06-1.14-4-3.29-5.2-5.54S285.86,45.25,288.71,44.38ZM234,199.06c.49-2.1,2-3.46,2.6-5.69s.87-1.23,3.09-1.23h4.58c.38,2.59-4.08,3.46-4.95,5.19s2.6,0,6.19.12,3.47,0,3.22,2.1-3.22,4.08-4.33,6.43-1.49.74-3.22,2.1,3.34.74,4.58.74,3.84,4.2,5.2,5.8,3.34,5.69,5.2,9-.62,3.83,1.11,4,4-1.35,5.82.75.37,2.22-.37,4.2-3.34,3.08-4.08,3.7,3.71-.37,3.34.87-2.72,4.07-7.92,3.83-8.79,1.11-14.37,2.1-5.44,2.1-6.85,2.22,1.53-3,3.64-4.94,2.47-1.73,2.84-3.21-2.47.74-4.08-.74-1-2.85,1.61-4.08,2.23-3.34,1.11-3.58-1.36-1.73-.62-3.09,4,.12,6.32-1.11-1-3-1.86-5.56-2.35-1-4-2.35a10.19,10.19,0,0,1-3.22-4.08,30,30,0,0,1-1.74-7.66C232.63,202.64,233.49,201.16,234,199.06Zm-20.68,33.35c.87-1.11,3.72-1.48,4.46-3.83s-.87-2.84-1.49-4.57,2.48-.49,1-2.84-1.86-3.18,1.48-2.58,4.71-.88,1.73-2c0,0,2.6-1.48,4.71-2.59s6.07-1.24,6.68,0,2.85,3.49,1.86,4.58-2,.23-2.35,2.7.62,6.3-1.36,9.27-2,1.61-5.95,3.58-6.8,3.59-8.29,2.35S212.45,233.52,213.31,232.41Zm-34.17-72.27c-4.45.13-3-1.23-1.23-1.36s2.35-1.85,1.48-3.7-2.85-.13-5.2-.74.62-2.85,4-3.34,3.47-.87,3.22-2-4.83.12-8.05,0,1.49-1.86,2.48-3.47a9.28,9.28,0,0,1,4.71-3.58c2-.74,2.1.62,3,2.47s-.38,4.45.6,4.57,3.48-3.83,6.21-6.05,4.58.12,7.42,0,1.74-3,4.83-3.09,2.73.87,2.73.87a12.91,12.91,0,0,0,2.72,4.57c1.73,1.6,1.36,4,0,6.42s-6.81,4.82-10.52,6.8-7.18,4.32-10.4,3.45S183.6,160,179.14,160.14ZM451.76,516.93c-.66,3-2.47,4.94-5.44,9.14s-8.75,10.71-10.4,13.51-6,4.77-7.1,5.35-5.2,2.55-6.19,2.47-1.49-2.55-1.16-3.87a11.37,11.37,0,0,1,4.38-5.85c2.47-1.56,2.89-4.28,2.39-5s.58-3.87,1.57-5.36,3.46-2.55,5.86-2.71,7.59-5.85,9.74-7.17,4.45-5.52,5.2-6.18a12.44,12.44,0,0,1,1.57-1.15l.41,1.15C453,512.4,452.42,513.88,451.76,516.93Z"/><circle class="cls-1" cx="300" cy="300" r="295"/></svg>