<?xml version="1.0" encoding="utf-8"?>
<!-- Generator: Adobe Illustrator 22.1.0, SVG Export Plug-In . SVG Version: 6.00 Build 0)  -->
<svg version="1.1" id="Layer_1" xmlns="http://www.w3.org/2000/svg" xmlns:xlink="http://www.w3.org/1999/xlink" x="0px" y="0px"
	 viewBox="0 0 2560 1440" style="enable-background:new 0 0 2560 1440;" xml:space="preserve">
<style type="text/css">
	.st0{fill:url(#SVGID_1_);}
	.st1{fill:#FFFFFF;}
	.st2{fill:#C2CFFF;}
	.st3{fill:#D7E2FF;}
	.st4{fill:#5064AD;}
	.st5{fill:#999999;}
	.st6{fill:#CCCCCC;}
	.st7{fill:#666666;}
	.st8{fill:#3D3D3D;}
	.st9{fill:#7A7A7A;}
	.st10{fill:#EAEAEA;}
	.st11{fill:#C4C4C4;}
	.st12{font-family:'A-SpaceDemo';}
	.st13{font-size:36.54px;}
	.st14{font-size:32.94px;}
</style>
<title>Artboard 1</title>
<linearGradient id="SVGID_1_" gradientUnits="userSpaceOnUse" x1="1280" y1="5" x2="1280" y2="1929" gradientTransform="matrix(1 0 0 -1 0 1440)">
	<stop  offset="0" style="stop-color:#5064AD"/>
	<stop  offset="1" style="stop-color:#000000"/>
</linearGradient>
<rect class="st0" width="2560" height="1440"/>
<circle class="st1" cx="186.6" cy="129.1" r="7.5"/>
<circle class="st1" cx="362.1" cy="337.6" r="7.5"/>
<circle class="st1" cx="575.1" cy="337.6" r="7.5"/>
<circle class="st1" cx="662.1" cy="738.1" r="7.5"/>
<circle class="st1" cx="857.1" cy="592.6" r="7.5"/>
<circle class="st1" cx="1064.1" cy="769.6" r="7.5"/>
<circle class="st1" cx="417.6" cy="745.6" r="7.5"/>
<circle class="st1" cx="201.6" cy="558.1" r="7.5"/>
<circle class="st1" cx="164.1" cy="793.6" r="7.5"/>
<circle class="st1" cx="1209.6" cy="337.6" r="7.5"/>
<circle class="st1" cx="842.1" cy="192.1" r="7.5"/>
<circle class="st1" cx="1460.1" cy="136.6" r="7.5"/>
<circle class="st1" cx="1578.6" cy="435.1" r="7.5"/>
<circle class="st1" cx="1668.6" cy="777.1" r="7.5"/>
<circle class="st1" cx="1964.1" cy="634.6" r="7.5"/>
<circle class="st1" cx="2057.1" cy="345.1" r="7.5"/>
<circle class="st1" cx="2204" cy="97.6" r="7.5"/>
<circle class="st1" cx="2400.5" cy="312.1" r="7.5"/>
<circle class="st1" cx="2439.5" cy="678.1" r="7.5"/>
<circle class="st1" cx="2232.5" cy="967.6" r="7.5"/>
<path class="st1" d="M636.2,403c-1.2,0-2.2,1-2.2,2.2c0,1.2,1,2.2,2.2,2.2c1.2,0,2.2-1,2.2-2.2c0,0,0,0,0,0
	C638.3,404,637.4,403,636.2,403z"/>
<path class="st1" d="M722.3,351.8c-1.2,0-2.2,1-2.2,2.2c0,1.2,1,2.2,2.2,2.2c1.2,0,2.2-1,2.2-2.2l0,0
	C724.5,352.8,723.5,351.8,722.3,351.8z"/>
<path class="st1" d="M931.3,294.3c-1.2,0-2.2,1-2.2,2.2c0,1.2,1,2.2,2.2,2.2c1.2,0,2.2-1,2.2-2.2l0,0
	C933.5,295.3,932.5,294.3,931.3,294.3z"/>
<path class="st1" d="M480.5,205c-1.2,0-2.2,1-2.2,2.2s1,2.2,2.2,2.2c1.2,0,2.2-1,2.2-2.2S481.7,205,480.5,205L480.5,205z"/>
<path class="st1" d="M235,214.3c-1.2,0-2.2,1-2.2,2.2s1,2.2,2.2,2.2s2.2-1,2.2-2.2l0,0C237.2,215.3,236.2,214.3,235,214.3z"/>
<path class="st1" d="M352.5,548.4c-1.2,0-2.2,1-2.2,2.2c0,1.2,1,2.2,2.2,2.2c1.2,0,2.2-1,2.2-2.2l0,0
	C354.6,549.4,353.7,548.4,352.5,548.4z"/>
<path class="st1" d="M834.6,733.8c-1.2,0-2.2,1-2.2,2.2c0,1.2,1,2.2,2.2,2.2c1.2,0,2.2-1,2.2-2.2c0,0,0,0,0,0
	C836.8,734.7,835.8,733.8,834.6,733.8z"/>
<path class="st1" d="M551,874.3c-1.2,0-2.2,1-2.2,2.2c0,1.2,1,2.2,2.2,2.2c1.2,0,2.2-1,2.2-2.2c0,0,0,0,0,0
	C553.2,875.3,552.2,874.3,551,874.3z"/>
<path class="st1" d="M97.8,387.8c-1.2,0-2.2,1-2.2,2.2c0,1.2,1,2.2,2.2,2.2s2.2-1,2.2-2.2S99,387.8,97.8,387.8L97.8,387.8z"/>
<path class="st1" d="M387.8,54.8c-1.2,0-2.2,1-2.2,2.2s1,2.2,2.2,2.2s2.2-1,2.2-2.2C390,55.8,389,54.8,387.8,54.8L387.8,54.8z"/>
<path class="st1" d="M1029.8,52.7c-1.2,0-2.2,1-2.2,2.2s1,2.2,2.2,2.2s2.2-1,2.2-2.2c0,0,0,0,0,0C1032,53.6,1031,52.7,1029.8,52.7
	C1029.8,52.7,1029.8,52.7,1029.8,52.7z"/>
<path class="st1" d="M1690,17c-1.2,0-2.2,1-2.2,2.2s1,2.2,2.2,2.2c1.2,0,2.2-1,2.2-2.2C1692.2,18,1691.2,17,1690,17L1690,17z"/>
<path class="st1" d="M1617.8,204.5c-1.2,0-2.2,1-2.2,2.2s1,2.2,2.2,2.2c1.2,0,2.2-1,2.2-2.2C1620,205.5,1619,204.5,1617.8,204.5
	L1617.8,204.5z"/>
<path class="st1" d="M1452.6,467c-1.2,0-2.2,1-2.2,2.2s1,2.2,2.2,2.2c1.2,0,2.2-1,2.2-2.2C1454.8,468,1453.8,467,1452.6,467
	L1452.6,467z"/>
<path class="st1" d="M1948.8,432.9c-1.2,0-2.2,1-2.2,2.2s1,2.2,2.2,2.2c1.2,0,2.2-1,2.2-2.2C1951,433.9,1950,432.9,1948.8,432.9
	L1948.8,432.9z"/>
<path class="st1" d="M1916.8,233.8c-1.2,0-2.2,1-2.2,2.2s1,2.2,2.2,2.2c1.2,0,2.2-1,2.2-2.2C1919,234.8,1918,233.8,1916.8,233.8
	L1916.8,233.8z"/>
<path class="st1" d="M2247,103c-1.2,0-2.2,1-2.2,2.2c0,1.2,1,2.2,2.2,2.2c1.2,0,2.2-1,2.2-2.2c0,0,0,0,0,0
	C2249.2,104,2248.2,103,2247,103z"/>
<path class="st1" d="M2244.8,469.2c-1.2,0-2.2,1-2.2,2.2c0,1.2,1,2.2,2.2,2.2c1.2,0,2.2-1,2.2-2.2c0,0,0,0,0,0
	C2247,470.1,2246,469.2,2244.8,469.2C2244.8,469.2,2244.8,469.2,2244.8,469.2z"/>
<path class="st1" d="M2073.8,815.8c-1.2,0-2.2,1-2.2,2.2c0,1.2,1,2.2,2.2,2.2c1.2,0,2.2-1,2.2-2.2c0,0,0,0,0,0
	C2076,816.8,2075,815.8,2073.8,815.8z"/>
<path class="st1" d="M1699.8,1056.7c-1.2,0-2.2,1-2.2,2.2s1,2.2,2.2,2.2c1.2,0,2.2-1,2.2-2.2c0,0,0,0,0,0
	C1702,1057.6,1701,1056.7,1699.8,1056.7C1699.8,1056.7,1699.8,1056.7,1699.8,1056.7z"/>
<path class="st1" d="M1508.8,878.7c-1.2,0-2.2,1-2.2,2.2c0,1.2,1,2.2,2.2,2.2c1.2,0,2.2-1,2.2-2.2c0,0,0,0,0,0
	C1511,879.6,1510,878.7,1508.8,878.7C1508.8,878.7,1508.8,878.7,1508.8,878.7z"/>
<path class="st1" d="M970,1010.3c-1.2,0-2.2,1-2.2,2.2c0,1.2,1,2.2,2.2,2.2c1.2,0,2.2-1,2.2-2.2c0,0,0,0,0,0
	C972.2,1011.3,971.2,1010.3,970,1010.3z"/>
<path class="st1" d="M744.5,1058.8c-1.2,0-2.2,1-2.2,2.2c0,1.2,1,2.2,2.2,2.2c1.2,0,2.2-1,2.2-2.2S745.7,1058.8,744.5,1058.8
	L744.5,1058.8z"/>
<path class="st2" d="M2560,695.3V585.8c-30.2-12.1-64.6,2.5-76.7,32.8c-4.8,11.9-5.6,25.1-2.2,37.5c-77.6-37.5-170.8-5-208.3,72.6
	c-16.7,34.5-20.1,74-9.5,110.8c-30-18.4-69.3-9-87.7,21.1c-6.1,10-9.4,21.5-9.4,33.3c0,0.1,0,0.2,0,0.3c-1.3-0.2-2.6-0.3-3.9-0.3
	c-14.9,0-27,12.1-27,27c0,0.7,0,1.4,0.1,2c-65.8-30.4-143.9-1.7-174.3,64.2c-12.5,27.2-15.4,57.8-8.2,86.8
	c-36-29.8-89.3-24.8-119.1,11.2c-8.7,10.4-14.7,22.8-17.5,36.1c-36.6-41.2-99.6-44.9-140.8-8.3c-24.8,22-37,54.9-32.6,87.7
	c-22.5-23.1-59.4-23.5-82.4-1c-8,7.8-13.6,17.8-16.1,28.7c-23.3-17.3-54.5-19.7-80.2-6.2c-6.9-11.7-19.4-18.9-33-18.9
	c-0.8,0-1.6,0-2.4,0.1c-2.9-5.8-8.1-10.1-14.4-11.8c-47.8-71.3-56.7-201.8-56.7-201.8l-34.4-0.2c2.7,67.3-10.4,79.4-10.4,79.4
	c-16-24.1-18.1-80-18.1-80H1266c0,0,0,50.1-18.2,80c0,0-15-25.4-11.8-79.2l-33,0.2c0,0-3.1,93.8-55,197.8
	c-6.2,0.1-12.1,2.5-16.8,6.6c-15.5-2.8-31.3,2.1-42.4,13.2c-9.3-9.8-22.3-15.4-35.8-15.4c-2.8,0-5.7,0.2-8.4,0.7
	c-17.1-29.3-54.8-39.2-84.1-22c-2.2,1.3-4.4,2.7-6.4,4.3c-46.5-58.3-131.5-67.8-189.7-21.3c-8.6,6.9-16.4,14.8-23.1,23.6
	c-14.3-42.6-60.4-65.6-103-51.3c-11.2,3.8-21.5,10-30.1,18.1c0.1-1.6,0.1-3.3,0.1-4.9c0-49.7-40.3-90-90-90c-25.6,0-50,10.9-67,29.9
	c0-1,0.1-2,0.1-3c0-34.6-28-62.7-62.7-62.7c-4.6,0-9.2,0.5-13.7,1.5c18.6-57.6-13-119.3-70.6-137.9c-10.9-3.5-22.2-5.3-33.6-5.3
	c-1.2,0-2.4,0-3.6,0.1c9.6-22-0.5-47.7-22.5-57.3c-5.5-2.4-11.4-3.6-17.4-3.6h-1.4c20.7-41.2,4-91.3-37.1-112
	c-21.4-10.7-46.4-11.8-68.6-2.8c-16.3-50.1-69.1-78.7-120-65v779h2560V695.3z"/>
<path class="st3" d="M1200.3,1041.4c0,0-8.5,49.8,18.1,109.8c0,0,19.9-27.5,18.2-109.8H1200.3z"/>
<path class="st3" d="M1262.5,1041.8c0,0-9.7,47.5,18.1,109.8c0,0,21.2-32.3,18.2-109.8H1262.5z"/>
<path class="st3" d="M1360.1,1041.8h-36.3c0,0-6.4,49.8,18.1,109.8C1342,1151.5,1364.8,1113.8,1360.1,1041.8z"/>
<path class="st4" d="M2486.1,823c-5.9,15.5-8.1,32.1-6.4,48.6c-21.2,4.6-36.8,22.6-38.3,44.3c-4.6-1-9.2-1.6-13.9-1.6
	c-13.8,0-27.3,4.6-38.2,13c-2.9-0.3-5.8-0.5-8.8-0.5c-44.2,0-80,35.8-80,80c0,14.5,3.9,28.8,11.4,41.2c-8.3,8.8-12.9,20.4-12.9,32.6
	c0,2.8,0.3,5.7,0.8,8.4c-8.9,0.7-17.4,3.5-25,8.1c-12.5-17.7-37-21.9-54.7-9.4c-10.4,7.3-16.6,19.3-16.6,32c0,0.4,0,0.8,0,1.2
	c-20.9-4.1-42.5,2.6-57.4,17.8c-10.9,0.2-21.3,4.3-29.3,11.7c-20.6-9.2-44.8-2-57.1,16.9c-13.1-3.9-27-4.2-40.1-0.7
	c-18.4-42.6-67.8-62.2-110.4-43.9c-38.3,16.5-58.7,58.7-47.9,98.9c-0.5,0-1,0-1.4,0c-26.2,0-49,17.9-55.3,43.3
	c-2.1,0.3-4.1,0.7-6.2,1.2c-12.5,2.8-24,8.9-33.4,17.6c-24-11-52.4-3.6-67.9,17.7c-31.9-31.4-83.1-31-114.5,0.8
	c-3,3-5.8,6.3-8.2,9.8c-12.1-23.9-41.3-33.4-65.1-21.3c-4.1,2.1-7.9,4.7-11.3,7.9c-2.2-1.8-4.5-3.3-7.1-4.5
	c-4.1-1.9-8.6-2.8-13.1-2.7c-12.2-35-45.3-58.5-82.4-58.5h-0.6c-1.9-16.7-13.6-30-28.4-32.6c-5.8-19.3-19.4-35.4-38.8-42.7
	c-24.8-9.4-52.1-1.8-70.7,17c-23.1-14.6-53.7-7.7-68.2,15.4c-2,3.2-3.7,6.7-5,10.3c-18.3,11.7-29.3,29.2-28.2,46.7
	c-23.9,3.4-41.7,23.8-41.8,48c0,0.6,0,1.2,0,1.8c-1.3-0.2-2.6-0.3-3.9-0.3c-11.4,0-21.9,6.5-26.8,16.8c-14.3-8.2-32.1-7.5-45.8,1.8
	c-23.8-19-57.7-19-81.5,0.1c-4.4-3.1-9.3-5.2-14.4-6.4c-19.2-39.3-66.5-55.5-105.8-36.4c-5,2.4-9.7,5.4-14.1,8.9
	c-13-5.7-28.1-3.9-39.2,4.9c-22.2-26.4-61.6-29.7-87.9-7.5c-3.1,2.6-6,5.5-8.5,8.7c-10.6-3.8-22-4.4-32.9-1.6
	c-3.3-9.1-9.5-16.9-17.7-22.1c17.2-32.6,4.6-73-28-90.1c-32.6-17.2-73-4.6-90.1,28c-4.1,7.9-6.7,16.5-7.4,25.3
	c-9-11.2-22.6-17.7-36.9-17.7c-1,0-2.1,0.1-3.1,0.1c-13.1-47.8-62.4-76-110.3-63c-3,0.8-5.9,1.8-8.7,2.9
	c-13.3-6.3-32.3-7.9-52.4-3.5c0-0.8,0.1-1.7,0.1-2.5c0-39.4-31.9-71.2-71.3-71.2c-5.7,0-11.3,0.7-16.8,2
	c-5.1-45.1-43.3-79.3-88.7-79.3c-4.2,0-8.3,0.3-12.4,0.9c-2.3-23.9-23.5-41.5-47.4-39.2c-2.8,0.3-5.5,0.8-8.1,1.6
	c-1.9-17-15.2-30.6-32.2-32.9c0.6-3.6,0.9-7.2,1-10.8c0-18.4-8.1-35.9-22.1-47.8V1409h2560V760.2
	C2529.1,763.9,2499.5,787.6,2486.1,823z"/>
<path class="st1" d="M1216.5,1093c0,0,11.2-26.7,11.2-54.3h-21.8C1205.8,1038.7,1204.6,1065.8,1216.5,1093z"/>
<path class="st1" d="M1279.8,1093c0,0,11.2-26.7,11.2-54.3h-21.8C1269.1,1038.7,1267.8,1065.8,1279.8,1093z"/>
<path class="st1" d="M1331,1038.7c0,0-1.3,27.2,10.7,54.3c0,0,11.2-26.7,11.2-54.3H1331z"/>
<path class="st5" d="M1198.6,1028.5c0,0-3.4,5-5.3,16.2c0,0,0,0.4,0.3,0.5l0.5,0.1c0.8-5.8,2.5-11.5,5-16.8H1198.6z"/>
<path class="st6" d="M1194.8,1045.3c0.7-4.7,2.1-9.4,4-13.8c0.3-1.1,0.7-2.2,1-3h-0.8c-2.5,5.3-4.2,11-5,16.8l0,0L1194.8,1045.3
	L1194.8,1045.3z"/>
<path class="st7" d="M1207.5,1039.3c0.6-2.1,1.3-4.2,2.2-6.2c-0.5-2-0.9-3.7-1.1-4.5h-1.2c-0.6,1.5-1,3-1.4,4.5
	C1206.5,1035.2,1207.1,1037.3,1207.5,1039.3z"/>
<path class="st5" d="M1206.5,1028.6h-0.4c-0.4,0.6-0.7,1.3-1,1.9l0.3,0.8C1206,1029.6,1206.5,1028.6,1206.5,1028.6z"/>
<path class="st8" d="M1211.1,1030.1c-0.2-0.6-0.4-1.1-0.6-1.6h-2v0.1c0.2,0.8,0.6,2.4,1.1,4.5
	C1210,1032.1,1210.5,1031.1,1211.1,1030.1z"/>
<path class="st6" d="M1205.9,1033c0.4-1.5,0.9-3,1.4-4.5h-0.8c0,0-0.5,1-1.2,2.7C1205.5,1031.9,1205.7,1032.4,1205.9,1033z"/>
<path class="st7" d="M1231,1029.6c0.5,1.3,1,2.8,1.4,4.2c0.2-0.5,0.3-0.9,0.5-1.3c-0.4-1.7-0.7-3.1-0.9-3.8h-1.2l-0.3,0.8H1231z"/>
<path class="st5" d="M1230,1028.8h-0.4c0,0-0.2,0.3-0.5,0.8h0.5L1230,1028.8z"/>
<path class="st8" d="M1234.3,1029.8c-0.1-0.4-0.3-0.7-0.4-1.1h-2l0,0c0.2,0.7,0.5,2.1,0.9,3.8
	C1233.3,1031.6,1233.8,1030.7,1234.3,1029.8z"/>
<path class="st6" d="M1230.5,1029.6l0.3-0.8h-0.8l-0.4,0.8H1230.5z"/>
<path class="st7" d="M1223.6,1036.5c0.6-1.9,1.4-3.8,2.3-5.7c-0.4-1.6-0.7-2.8-0.8-3.4h-1.2c-0.6,1.5-1.1,3-1.5,4.6
	C1222.8,1033.5,1223.2,1035.1,1223.6,1036.5z"/>
<path class="st5" d="M1223.1,1027.4h-0.4c-0.4,0.6-0.8,1.3-1.1,2c0.1,0.3,0.2,0.6,0.3,0.8
	C1222.5,1028.5,1223.1,1027.4,1223.1,1027.4z"/>
<path class="st8" d="M1226.6,1029.7h1.2c-0.3-0.8-0.5-1.6-0.8-2.3h-2v0.1c0.2,0.7,0.5,1.9,0.8,3.4
	C1226.3,1030.1,1226.6,1029.7,1226.6,1029.7z"/>
<path class="st6" d="M1222.3,1032c0.4-1.6,0.9-3.1,1.5-4.6h-0.8c0,0-0.5,1-1.3,2.9C1222,1030.9,1222.2,1031.4,1222.3,1032z"/>
<path class="st7" d="M1222,1042.5c-0.6-4.7-1.6-9.4-2.8-14.1h-1.2c-0.5,1.2-0.9,2.5-1.3,3.8c1.4,4.4,2.4,8.8,3.2,13.3l1.5-0.1
	C1221.6,1044.3,1221.8,1043.4,1222,1042.5z"/>
<path class="st5" d="M1217.1,1028.4h-0.4c-0.3,0.5-0.6,1-0.8,1.5c0.1,0.3,0.2,0.5,0.3,0.7
	C1216.7,1029.2,1217.1,1028.4,1217.1,1028.4z"/>
<path class="st8" d="M1222,1042.5c0.4-2,1-4,1.6-5.9c-0.4-1.5-0.8-3-1.2-4.5c-0.2-0.6-0.4-1.2-0.6-1.7c-0.1-0.3-0.2-0.6-0.3-0.8
	s-0.3-0.8-0.4-1.1h-1.9v0.1C1220.4,1033,1221.4,1037.7,1222,1042.5z"/>
<path class="st6" d="M1216.7,1032.2c0.4-1.3,0.8-2.5,1.3-3.8h-0.8c0,0-0.4,0.8-1,2.2C1216.3,1031.1,1216.5,1031.6,1216.7,1032.2z"/>
<path class="st5" d="M1202.6,1029.1h-1.2c-1.2,3.4-2.2,6.8-2.8,10.3c-0.7,3.6-0.8,6.6-0.8,6.7c2.6,0.2,5.3,0.2,7.9-0.1
	C1205.1,1040.3,1204.1,1034.6,1202.6,1029.1z"/>
<path class="st5" d="M1197.7,1046.1l-2.1-0.2C1196,1045.9,1196.7,1046,1197.7,1046.1z"/>
<path class="st5" d="M1200.6,1029.1h0.7c-0.1-0.2-0.1-0.4-0.2-0.6h-1.2c-0.3,0.9-0.7,1.9-1,3c-1.9,4.4-3.3,9-4,13.8v0.1l-0.7-0.1
	l0.7,0.1c0,0.1,0,0.4,0.3,0.4l0.5,0.1C1196.4,1040.1,1198.1,1034.4,1200.6,1029.1z"/>
<path class="st9" d="M1207.5,1039.3c-0.4-2-1-4.2-1.6-6.3c-0.2-0.6-0.4-1.2-0.6-1.7l-0.3-0.8c-0.2-0.5-0.3-1-0.5-1.4h-1.3l-0.2-0.6
	h-2l0,0c0,0.2,0.1,0.3,0.2,0.6h1.3c1.5,5.5,2.5,11.2,3.1,16.9l0,0h0.4c0,0,0-0.1,0-0.1C1206.5,1043.4,1207,1041.2,1207.5,1039.3z"/>
<path class="st6" d="M1198.6,1039.4c0.6-3.5,1.5-7,2.8-10.3h-0.8c-2.5,5.3-4.2,11-5,16.8l0,0l2.1,0.2l0,0
	C1197.7,1046.1,1197.9,1043.1,1198.6,1039.4z"/>
<path class="st5" d="M1213.8,1029.7h-1.2c-1.2,3.3-2.2,6.8-2.8,10.3c-0.7,3.6-0.8,6.6-0.8,6.7c2.6,0.2,5.3,0.2,7.9-0.1
	C1216.3,1040.9,1215.3,1035.2,1213.8,1029.7z"/>
<path class="st5" d="M1208.9,1046.6l-2.1-0.2C1207.3,1046.5,1208,1046.6,1208.9,1046.6z"/>
<path class="st5" d="M1211.8,1029.7h-0.4c-0.1,0.2-0.2,0.3-0.3,0.5c-0.5,0.9-1,1.9-1.4,2.9c-0.9,2-1.6,4.1-2.2,6.2
	c-0.5,1.9-1,4.1-1.5,6.6c0,0,0,0.1,0,0.1c0,0.2,0.1,0.4,0.3,0.4l0.5,0.1C1207.6,1040.6,1209.3,1035,1211.8,1029.7z"/>
<path class="st9" d="M1216.7,1032.2c-0.2-0.5-0.3-1-0.5-1.6c-0.1-0.3-0.2-0.5-0.3-0.7l-0.1-0.3h-2v0.1c1.5,5.5,2.5,11.2,3.1,16.9
	l0,0h0.6h0.1c0.6,0,1.2-0.1,1.9-0.2c0,0,0.4,0,0.4-0.3c0-0.2,0-0.3-0.1-0.5C1219.1,1041,1218,1036.5,1216.7,1032.2z"/>
<path class="st6" d="M1209.8,1040c0.6-3.5,1.5-7,2.8-10.3h-0.8c-2.5,5.3-4.2,11-5,16.8l0,0l2.1,0.2l0,0
	C1208.9,1046.7,1209.2,1043.6,1209.8,1040z"/>
<path class="st5" d="M1235.8,1029.4c-1,2.7-1.8,5.5-2.4,8.3c1.1,4.3,1.7,8.1,1.7,8.3c0,0.2-0.2,0.4-0.4,0.3l-1.1,0.1
	c2.2,0.1,4.3,0,6.5-0.1c-0.6-5.7-1.6-11.4-3.1-16.9H1235.8z"/>
<path class="st5" d="M1232.4,1033.9c0.1,0.4,0.2,0.8,0.3,1.1c0.6-1.9,1.4-3.8,2.3-5.6h-0.4l-0.3,0.4c-0.5,0.9-1,1.8-1.4,2.8
	C1232.8,1033,1232.6,1033.4,1232.4,1033.9z"/>
<path class="st9" d="M1237,1029.3L1237,1029.3c1.5,5.6,2.5,11.2,3.1,17l0,0l0.6-0.1h0.1c0.6,0,1.2-0.1,1.9-0.2c0,0,0.4,0,0.4-0.3
	c-0.9-5.6-2.3-11.1-4.2-16.4H1237z"/>
<path class="st6" d="M1232.8,1035c0.3,0.9,0.5,1.8,0.7,2.7c0.6-2.8,1.4-5.6,2.4-8.3h-0.8C1234.1,1031.2,1233.4,1033.1,1232.8,1035z"
	/>
<path class="st5" d="M1229.1,1029.7L1229.1,1029.7L1229.1,1029.7h-1.2c-1.2,3.4-2.2,6.8-2.8,10.3c-0.7,3.6-0.8,6.6-0.8,6.7
	c2.6,0.2,5.3,0.2,7.9-0.1C1231.6,1040.9,1230.6,1035.2,1229.1,1029.7z"/>
<path class="st5" d="M1224.2,1046.7l-2.1-0.2C1222.5,1046.5,1223.2,1046.6,1224.2,1046.7z"/>
<path class="st5" d="M1227.1,1029.7h-0.4c0,0-0.3,0.4-0.7,1.2c-0.9,1.8-1.7,3.7-2.3,5.7c-0.6,1.9-1.2,3.9-1.6,5.9
	c-0.2,0.9-0.4,1.9-0.6,2.9c0,0.2-0.1,0.3-0.1,0.5c0,0,0,0.4,0.3,0.5l0.5,0.1C1222.9,1040.7,1224.5,1035,1227.1,1029.7z"/>
<path class="st9" d="M1235.2,1046c0-0.2-0.6-4-1.7-8.3c-0.2-0.9-0.4-1.8-0.7-2.7c-0.1-0.4-0.2-0.8-0.3-1.1c-0.4-1.5-0.9-2.9-1.4-4.2
	h-2l0,0c1.5,5.5,2.5,11.2,3.1,16.9l0,0l0.6-0.1h0.1l0.8-0.1l1.1-0.1C1234.9,1046.4,1235.1,1046.2,1235.2,1046
	C1235.2,1046,1235.2,1046,1235.2,1046z"/>
<path class="st6" d="M1225.1,1040c0.6-3.5,1.5-7,2.8-10.3h-0.8c-2.5,5.3-4.2,11-5,16.8l0,0l2.1,0.2l0,0
	C1224.2,1046.7,1224.4,1043.7,1225.1,1040z"/>
<path class="st5" d="M1260.3,1028.5c0,0-3.4,5-5.3,16.2c0,0,0,0.4,0.3,0.5l0.5,0.1c0.8-5.8,2.5-11.5,5-16.8H1260.3z"/>
<path class="st6" d="M1256.5,1045.3c0.7-4.7,2.1-9.4,4-13.8c0.3-1.1,0.7-2.2,1-3h-0.8c-2.5,5.3-4.2,11-5,16.8l0,0L1256.5,1045.3
	C1256.4,1045.4,1256.5,1045.3,1256.5,1045.3z"/>
<path class="st7" d="M1269.2,1039.3c0.6-2.1,1.3-4.2,2.1-6.2c-0.5-2-0.9-3.7-1.1-4.5h-1.3c-0.6,1.5-1.1,3-1.4,4.5
	C1268.2,1035.2,1268.8,1037.3,1269.2,1039.3z"/>
<path class="st5" d="M1268.2,1028.6h-0.4c-0.4,0.6-0.7,1.3-1.1,1.9c0.1,0.3,0.2,0.6,0.3,0.8
	C1267.7,1029.6,1268.2,1028.6,1268.2,1028.6z"/>
<path class="st8" d="M1272.8,1030.1c-0.2-0.6-0.4-1.1-0.6-1.6h-2v0.1c0.2,0.8,0.6,2.4,1.1,4.5
	C1271.7,1032.1,1272.2,1031.1,1272.8,1030.1z"/>
<path class="st6" d="M1267.6,1033c0.4-1.5,0.9-3,1.4-4.5h-0.8c0,0-0.5,1-1.2,2.7C1267.2,1031.9,1267.4,1032.4,1267.6,1033z"/>
<path class="st7" d="M1292.7,1029.6c0.5,1.3,1,2.8,1.4,4.2c0.2-0.5,0.4-0.9,0.5-1.3c-0.4-1.7-0.8-3.1-0.9-3.8h-1.2
	c-0.1,0.3-0.2,0.6-0.3,0.8H1292.7z"/>
<path class="st5" d="M1291.7,1028.8h-0.4c0,0-0.2,0.3-0.5,0.8h0.5C1291.6,1029.1,1291.7,1028.8,1291.7,1028.8z"/>
<path class="st8" d="M1296.1,1029.8c-0.1-0.4-0.3-0.7-0.4-1.1h-2l0,0c0.2,0.7,0.5,2.1,0.9,3.8
	C1295,1031.6,1295.5,1030.7,1296.1,1029.8z"/>
<path class="st6" d="M1292.2,1029.6c0.1-0.3,0.2-0.6,0.3-0.8h-0.8c0,0-0.2,0.3-0.4,0.8H1292.2z"/>
<path class="st7" d="M1285.3,1036.5c0.6-1.9,1.4-3.8,2.3-5.7c-0.4-1.6-0.7-2.8-0.9-3.4h-1.2c-0.6,1.5-1.1,3-1.5,4.6
	C1284.5,1033.5,1284.9,1035.1,1285.3,1036.5z"/>
<path class="st5" d="M1284.8,1027.4h-0.4c-0.4,0.6-0.8,1.3-1.1,2l0.3,0.8C1284.2,1028.5,1284.8,1027.4,1284.8,1027.4z"/>
<path class="st8" d="M1288.3,1029.7h1.2c-0.3-0.8-0.5-1.6-0.8-2.3h-2v0.1c0.2,0.7,0.5,1.9,0.9,3.4
	C1288.1,1030.1,1288.3,1029.7,1288.3,1029.7z"/>
<path class="st6" d="M1284.1,1032c0.4-1.6,0.9-3.1,1.5-4.6h-0.8c0,0-0.5,1-1.3,2.9C1283.7,1030.9,1283.9,1031.4,1284.1,1032z"/>
<path class="st7" d="M1283.7,1042.5c-0.6-4.7-1.6-9.4-2.8-14.1h-1.2c-0.5,1.2-0.9,2.5-1.3,3.8c1.4,4.4,2.4,8.8,3.2,13.3l1.5-0.1
	C1283.3,1044.3,1283.4,1043.4,1283.7,1042.5z"/>
<path class="st5" d="M1278.8,1028.4h-0.4c-0.3,0.5-0.6,1-0.8,1.5c0.1,0.3,0.2,0.5,0.3,0.7
	C1278.4,1029.2,1278.8,1028.4,1278.8,1028.4z"/>
<path class="st8" d="M1283.7,1042.5c0.4-2,1-4,1.6-5.9c-0.4-1.5-0.8-3-1.2-4.5c-0.2-0.6-0.4-1.2-0.6-1.7l-0.3-0.8
	c-0.1-0.4-0.3-0.8-0.4-1.1h-2v0.1C1282,1033,1283,1037.7,1283.7,1042.5z"/>
<path class="st6" d="M1278.4,1032.2c0.3-1.3,0.8-2.5,1.3-3.8h-0.8c0,0-0.4,0.8-1,2.2C1278,1031.1,1278.2,1031.6,1278.4,1032.2z"/>
<path class="st5" d="M1264.3,1029.1h-1.2c-1.2,3.4-2.2,6.8-2.8,10.3c-0.7,3.6-0.9,6.6-0.9,6.7c2.6,0.2,5.3,0.2,7.9-0.1
	C1266.8,1040.3,1265.8,1034.6,1264.3,1029.1z"/>
<path class="st5" d="M1259.4,1046.1l-2.1-0.2C1257.7,1045.9,1258.4,1046,1259.4,1046.1z"/>
<path class="st5" d="M1262.3,1029.1h0.7c-0.1-0.2-0.1-0.4-0.2-0.6h-1.2c-0.3,0.9-0.7,1.9-1,3c-1.9,4.4-3.3,9-4,13.8c0,0,0,0,0,0.1
	l-0.7-0.1l0.7,0.1c0,0.1,0,0.4,0.3,0.4l0.5,0.1C1258.1,1040.1,1259.8,1034.4,1262.3,1029.1z"/>
<path class="st9" d="M1269.2,1039.3c-0.4-2-1-4.2-1.6-6.3c-0.2-0.6-0.4-1.2-0.6-1.7c-0.1-0.3-0.2-0.6-0.3-0.8
	c-0.2-0.5-0.3-1-0.5-1.4h-1.3c-0.1-0.2-0.1-0.4-0.2-0.6h-2l0,0c0,0.2,0.1,0.3,0.2,0.6h1.3c1.5,5.5,2.5,11.2,3.1,16.9l0,0h0.4v-0.1
	C1268.1,1043.7,1268.6,1041.5,1269.2,1039.3z"/>
<path class="st6" d="M1260.3,1039.4c0.6-3.5,1.5-7,2.8-10.3h-0.8c-2.5,5.3-4.2,11-5,16.8l0,0l2.1,0.2l0,0
	C1259.4,1046.1,1259.6,1043.1,1260.3,1039.4z"/>
<path class="st5" d="M1275.5,1029.7h-1.2c-1.2,3.3-2.2,6.8-2.8,10.3c-0.7,3.6-0.9,6.6-0.9,6.7c2.6,0.2,5.3,0.2,7.9-0.1
	C1278.1,1040.9,1277,1035.2,1275.5,1029.7z"/>
<path class="st5" d="M1270.6,1046.6l-2.1-0.2C1269,1046.5,1269.7,1046.6,1270.6,1046.6z"/>
<path class="st5" d="M1273.5,1029.7h-0.4c0,0-0.1,0.2-0.3,0.5c-0.5,0.9-1,1.9-1.4,2.9c-0.8,2-1.6,4.1-2.1,6.2
	c-0.6,2.2-1.1,4.4-1.5,6.6v0.1c0,0.2,0.1,0.4,0.3,0.4l0.5,0.1C1269.3,1040.6,1271,1035,1273.5,1029.7z"/>
<path class="st9" d="M1278.4,1032.2c-0.2-0.5-0.3-1-0.5-1.6c-0.1-0.3-0.2-0.5-0.3-0.7c0-0.1-0.1-0.2-0.1-0.3h-2v0.1
	c1.5,5.5,2.5,11.2,3.1,16.9l0,0h0.6h0.1c0.6,0,1.2-0.1,1.9-0.2c0,0,0.4,0,0.4-0.3c0,0,0-0.2-0.1-0.5
	C1280.8,1041,1279.7,1036.5,1278.4,1032.2z"/>
<path class="st6" d="M1271.5,1040c0.6-3.5,1.5-7,2.8-10.3h-0.8c-2.5,5.3-4.2,11-5,16.8l0,0l2.1,0.2l0,0
	C1270.7,1046.7,1270.9,1043.6,1271.5,1040z"/>
<path class="st5" d="M1297.5,1029.4c-1,2.7-1.8,5.5-2.4,8.3c0.7,2.7,1.3,5.5,1.7,8.3c0,0.4-0.4,0.3-0.4,0.3l-1.1,0.1
	c2.2,0.1,4.3,0,6.5-0.1c-0.6-5.7-1.6-11.4-3.1-16.9H1297.5z"/>
<path class="st5" d="M1294.1,1033.9l0.3,1.1c0.6-1.9,1.4-3.8,2.3-5.6h-0.4c-0.1,0.1-0.2,0.3-0.3,0.4c-0.5,0.9-1,1.8-1.4,2.8
	C1294.5,1033,1294.3,1033.4,1294.1,1033.9z"/>
<path class="st9" d="M1298.7,1029.3L1298.7,1029.3c1.5,5.6,2.5,11.2,3.1,17l0,0l0.6-0.1h0.1c0.6,0,1.2-0.1,1.9-0.2
	c0,0,0.4,0,0.4-0.3c-0.9-5.6-2.3-11.1-4.2-16.4H1298.7z"/>
<path class="st6" d="M1294.5,1035c0.3,0.9,0.5,1.8,0.7,2.7c0.6-2.8,1.3-5.6,2.4-8.3h-0.8C1295.9,1031.2,1295.1,1033.1,1294.5,1035z"
	/>
<path class="st5" d="M1290.8,1029.7L1290.8,1029.7L1290.8,1029.7h-1.2c-1.2,3.4-2.2,6.8-2.8,10.3c-0.7,3.6-0.9,6.6-0.9,6.7
	c2.6,0.2,5.3,0.2,7.9-0.1C1293.3,1040.9,1292.3,1035.2,1290.8,1029.7z"/>
<path class="st5" d="M1285.9,1046.7l-2.1-0.2C1284.2,1046.5,1284.9,1046.6,1285.9,1046.7z"/>
<path class="st5" d="M1288.8,1029.7h-0.4c0,0-0.3,0.4-0.7,1.2c-0.9,1.8-1.7,3.7-2.3,5.7c-0.6,1.9-1.2,3.9-1.6,5.9
	c-0.2,0.9-0.4,1.9-0.6,2.9l-0.1,0.5c0,0,0,0.4,0.3,0.5l0.5,0.1C1284.6,1040.7,1286.3,1035,1288.8,1029.7z"/>
<path class="st9" d="M1296.9,1046c-0.4-2.8-1-5.6-1.7-8.3c-0.2-0.9-0.5-1.8-0.7-2.7l-0.3-1.1c-0.4-1.5-0.9-2.9-1.4-4.2h-1.9l0,0
	c1.5,5.5,2.5,11.2,3.1,16.9l0,0l0.6-0.1h0.1l0.8-0.1l1.1-0.1C1296.4,1046.3,1296.8,1046.4,1296.9,1046z"/>
<path class="st6" d="M1286.8,1040c0.6-3.5,1.5-7,2.8-10.3h-0.8c-2.5,5.3-4.2,11-5,16.8l0,0l2.1,0.2l0,0
	C1285.9,1046.7,1286.1,1043.7,1286.8,1040z"/>
<path class="st5" d="M1321.9,1028.5c0,0-3.4,5-5.3,16.2c0,0,0,0.4,0.3,0.5l0.5,0.1c0.8-5.8,2.5-11.5,5-16.8H1321.9z"/>
<path class="st6" d="M1318.1,1045.3c0.7-4.7,2.1-9.4,4-13.8c0.3-1.1,0.7-2.2,1-3h-0.8c-2.5,5.3-4.2,11-5,16.8l0,0L1318.1,1045.3
	C1318.1,1045.4,1318.1,1045.3,1318.1,1045.3z"/>
<path class="st7" d="M1330.8,1039.3c0.6-2.1,1.3-4.2,2.1-6.2c-0.5-2-0.9-3.7-1.1-4.5h-1.2c-0.6,1.5-1.1,3-1.4,4.5
	C1329.8,1035.2,1330.4,1037.3,1330.8,1039.3z"/>
<path class="st5" d="M1329.8,1028.6h-0.4c-0.4,0.6-0.7,1.3-1.1,1.9c0.1,0.3,0.2,0.6,0.3,0.8
	C1329.3,1029.6,1329.8,1028.6,1329.8,1028.6z"/>
<path class="st8" d="M1334.4,1030.1c-0.2-0.6-0.4-1.1-0.6-1.6h-2v0.1c0.2,0.8,0.6,2.4,1.1,4.5
	C1333.3,1032.1,1333.8,1031.1,1334.4,1030.1z"/>
<path class="st6" d="M1329.2,1033c0.4-1.5,0.9-3,1.4-4.5h-0.8c0,0-0.5,1-1.2,2.7C1328.8,1031.9,1329,1032.4,1329.2,1033z"/>
<path class="st7" d="M1354.3,1029.6c0.5,1.3,1,2.8,1.4,4.2c0.2-0.5,0.4-0.9,0.5-1.3c-0.4-1.7-0.8-3.1-0.9-3.8h-1.2
	c-0.1,0.3-0.2,0.6-0.3,0.8H1354.3z"/>
<path class="st5" d="M1353.3,1028.8h-0.4c0,0-0.2,0.3-0.5,0.8h0.5C1353.2,1029.1,1353.3,1028.8,1353.3,1028.8z"/>
<path class="st8" d="M1357.7,1029.8c-0.1-0.4-0.3-0.7-0.4-1.1h-2l0,0c0.2,0.7,0.5,2.1,0.9,3.8
	C1356.6,1031.6,1357.1,1030.7,1357.7,1029.8z"/>
<path class="st6" d="M1353.8,1029.6c0.1-0.3,0.2-0.6,0.3-0.8h-0.8c0,0-0.2,0.3-0.4,0.8H1353.8z"/>
<path class="st7" d="M1346.9,1036.5c0.6-1.9,1.4-3.8,2.3-5.7c-0.4-1.6-0.7-2.8-0.9-3.4h-1.2c-0.6,1.5-1.1,3-1.5,4.6
	C1346.1,1033.5,1346.5,1035.1,1346.9,1036.5z"/>
<path class="st5" d="M1346.4,1027.4h-0.4c-0.4,0.6-0.8,1.3-1.1,2l0.3,0.8C1345.8,1028.5,1346.4,1027.4,1346.4,1027.4z"/>
<path class="st8" d="M1349.9,1029.7h1.2c-0.3-0.8-0.5-1.6-0.8-2.3h-2v0.1c0.2,0.7,0.5,1.9,0.9,3.4
	C1349.7,1030.1,1349.9,1029.7,1349.9,1029.7z"/>
<path class="st6" d="M1345.7,1032c0.4-1.6,0.9-3.1,1.5-4.6h-0.8c0,0-0.5,1-1.3,2.9C1345.3,1030.9,1345.5,1031.4,1345.7,1032z"/>
<path class="st7" d="M1345.3,1042.5c-0.6-4.7-1.6-9.4-2.8-14.1h-1.2c-0.5,1.2-0.9,2.5-1.3,3.8c1.4,4.4,2.4,8.8,3.2,13.3l1.5-0.1
	C1344.9,1044.3,1345.1,1043.4,1345.3,1042.5z"/>
<path class="st5" d="M1340.5,1028.4h-0.5c-0.3,0.5-0.6,1-0.8,1.5c0.1,0.3,0.2,0.5,0.3,0.7
	C1340.1,1029.2,1340.5,1028.4,1340.5,1028.4z"/>
<path class="st8" d="M1345.3,1042.5c0.4-2,1-4,1.6-5.9c-0.4-1.5-0.8-3-1.2-4.5c-0.2-0.6-0.4-1.2-0.6-1.7l-0.3-0.8
	c-0.1-0.4-0.3-0.8-0.4-1.1h-2v0.1C1343.6,1033,1344.6,1037.7,1345.3,1042.5z"/>
<path class="st6" d="M1340,1032.2c0.3-1.3,0.8-2.5,1.3-3.8h-0.8c0,0-0.4,0.8-1,2.2C1339.6,1031.1,1339.8,1031.6,1340,1032.2z"/>
<path class="st5" d="M1325.9,1029.1h-1.2c-1.2,3.4-2.2,6.8-2.8,10.3c-0.7,3.6-0.9,6.6-0.9,6.7c2.6,0.2,5.3,0.2,7.9-0.1
	C1328.4,1040.3,1327.4,1034.6,1325.9,1029.1z"/>
<path class="st5" d="M1321,1046.1l-2.1-0.2C1319.3,1045.9,1320.1,1046,1321,1046.1z"/>
<path class="st5" d="M1323.9,1029.1h0.7l-0.1-0.6h-1.2c-0.3,0.9-0.7,1.9-1,3c-1.9,4.4-3.3,9-4,13.8c0,0,0,0,0,0.1l-0.7-0.1l0.7,0.1
	c0,0.1,0.1,0.4,0.3,0.4l0.5,0.1C1319.7,1040.1,1321.4,1034.4,1323.9,1029.1z"/>
<path class="st9" d="M1330.8,1039.3c-0.4-2-1-4.2-1.6-6.3c-0.2-0.6-0.4-1.2-0.6-1.7c-0.1-0.3-0.2-0.6-0.3-0.8
	c-0.2-0.5-0.3-1-0.5-1.4h-1.3c-0.1-0.2-0.1-0.4-0.2-0.6h-2l0,0l0.1,0.6h1.4c1.5,5.6,2.6,11.2,3.2,17l0,0h0.4v-0.1
	C1329.7,1043.7,1330.2,1041.5,1330.8,1039.3z"/>
<path class="st6" d="M1321.9,1039.4c0.6-3.5,1.5-7,2.8-10.3h-0.8c-2.5,5.3-4.2,11-5,16.8l0,0l2.1,0.2l0,0
	C1321,1046.1,1321.3,1043.1,1321.9,1039.4z"/>
<path class="st5" d="M1337.1,1029.7h-1.2c-1.2,3.3-2.2,6.8-2.8,10.3c-0.7,3.6-0.9,6.6-0.9,6.7c2.6,0.2,5.3,0.2,7.9-0.1
	C1339.7,1040.9,1338.6,1035.2,1337.1,1029.7z"/>
<path class="st5" d="M1332.3,1046.6l-2.1-0.2C1330.6,1046.5,1331.3,1046.6,1332.3,1046.6z"/>
<path class="st5" d="M1335.1,1029.7h-0.4c0,0-0.1,0.2-0.3,0.5c-0.5,0.9-1,1.9-1.4,2.9c-0.9,2-1.6,4.1-2.1,6.2
	c-0.6,2.2-1.1,4.4-1.5,6.6v0.1c0,0.2,0.1,0.4,0.3,0.4l0.5,0.1C1330.9,1040.6,1332.6,1035,1335.1,1029.7z"/>
<path class="st9" d="M1340,1032.2c-0.2-0.5-0.3-1-0.5-1.6c-0.1-0.3-0.2-0.5-0.3-0.7c0-0.1-0.1-0.2-0.1-0.3h-2v0.1
	c1.5,5.5,2.5,11.2,3.1,16.9l0,0h0.6h0.1c0.6,0,1.2-0.1,1.9-0.2c0,0,0.4,0,0.4-0.3c0,0,0-0.2-0.1-0.5
	C1342.4,1041,1341.3,1036.5,1340,1032.2z"/>
<path class="st6" d="M1333.2,1040c0.6-3.5,1.5-7,2.8-10.3h-0.8c-2.5,5.3-4.2,11-5,16.8l0,0l2.1,0.2l0,0
	C1332.3,1046.7,1332.5,1043.6,1333.2,1040z"/>
<path class="st5" d="M1359.1,1029.4c-1,2.7-1.8,5.5-2.3,8.3c0.7,2.7,1.3,5.5,1.7,8.3c0,0.4-0.4,0.3-0.4,0.3l-1,0.1
	c2.2,0.1,4.3,0,6.5-0.1c-0.6-5.7-1.6-11.4-3.1-16.9H1359.1z"/>
<path class="st5" d="M1355.7,1033.9l0.3,1.1c0.6-1.9,1.4-3.8,2.3-5.6h-0.4c0,0-0.1,0.1-0.3,0.4c-0.5,0.9-1,1.8-1.4,2.8
	C1356.1,1033,1355.9,1033.4,1355.7,1033.9z"/>
<path class="st9" d="M1362.3,1029.3h-2v0.1c1.5,5.5,2.5,11.2,3.1,16.9l0,0l0.6-0.1h0.1c0.6,0,1.2-0.1,1.9-0.2c0,0,0.4,0,0.4-0.3
	C1365.5,1040.1,1364.2,1034.7,1362.3,1029.3z"/>
<path class="st6" d="M1356.1,1035c0.3,0.9,0.5,1.8,0.7,2.7c0.6-2.8,1.3-5.6,2.3-8.3h-0.8C1357.5,1031.2,1356.7,1033.1,1356.1,1035z"
	/>
<path class="st5" d="M1352.4,1029.7L1352.4,1029.7L1352.4,1029.7h-1.2c-1.2,3.4-2.2,6.8-2.8,10.3c-0.7,3.6-0.9,6.6-0.9,6.7
	c2.6,0.2,5.3,0.2,7.9-0.1C1354.9,1040.9,1353.9,1035.2,1352.4,1029.7z"/>
<path class="st5" d="M1347.5,1046.7l-2.1-0.2C1345.8,1046.5,1346.5,1046.6,1347.5,1046.7z"/>
<path class="st5" d="M1350.4,1029.7h-0.4c0,0-0.3,0.4-0.7,1.2c-0.9,1.8-1.7,3.7-2.3,5.7c-0.6,1.9-1.2,3.9-1.6,5.9
	c-0.2,0.9-0.4,1.9-0.6,2.9l-0.1,0.5c0,0,0,0.4,0.3,0.5l0.5,0.1C1346.2,1040.7,1347.9,1035,1350.4,1029.7z"/>
<path class="st9" d="M1358.5,1046c-0.4-2.8-1-5.6-1.7-8.3c-0.2-0.9-0.5-1.8-0.7-2.7l-0.3-1.1c-0.4-1.5-0.9-2.9-1.4-4.2h-1.9l0,0
	c1.5,5.5,2.5,11.2,3.1,16.9l0,0l0.6-0.1h0.1l0.8-0.1l1-0.1C1358,1046.3,1358.4,1046.4,1358.5,1046z"/>
<path class="st6" d="M1348.4,1040c0.6-3.5,1.5-7,2.8-10.3h-0.8c-2.5,5.3-4.2,11-5,16.8l0,0l2.1,0.2l0,0
	C1347.5,1046.7,1347.7,1043.7,1348.4,1040z"/>
<path class="st10" d="M1368.4,900.2l-0.1-431.1c0,0,0.7-0.2,0.8-0.3l0.1-18l-0.6-1.2l1.3-1l-0.1-3.3l-1.3-1.1l-0.1-10.3
	c0,0-0.7-6.1-1.5-11c-1.5-8.6-4.5-16.8-8.7-24.4c-5-8.5-9.6-13.2-11.1-14.6c-1.5-1.3-3.5-1.9-5.5-1.8c-2,0-3.8,0.4-6.3,2.7
	s-9.6,11.2-13.5,20.3s-5.7,16.5-7,29.1v2.2l-7.9-0.3l-0.3-232.6c0.8-0.1,1.5-0.4,2.1-0.9c0.8-0.6,3.3-5.3,4.4-7.1s2-6.1,2-6.1
	c1.5-2.2,2.4-4.7,2.5-7.3V78.4c-1-13.7-4.7-27.1-10.9-39.4c-3.1-5.9-6.7-11.5-10.9-16.7c-3.7-4.7-6.8-7.9-8.7-9.2
	c-4.4-3-10.3-2.9-14.5,0.3c-3.5,2.7-12.1,11.5-18.1,23.5s-11.6,28.3-11.9,40.5s-0.5,101.4,0,105.3c0.2,2.3,1.1,4.5,2.4,6.3
	c-0.2,0.2,0.4,2.3,1.4,4.9s4,7.8,5.1,8.4c0.6,0.4,1.3,0.7,2,0.9l-0.2,232.5l-8.1,0.1v-2.1c-1.3-12.7-3.1-20.1-7-29.1
	s-11-18-13.5-20.3s-4.3-2.7-6.3-2.7c-2-0.1-4,0.6-5.5,1.8c-1.5,1.4-6.1,6.2-11.1,14.6c-4.2,7.6-7.2,15.9-8.7,24.4
	c-0.8,5-1.5,11-1.5,11l-0.1,10.3l-1.3,1.1l-0.1,3.3l1.3,1l-0.6,1.2l0.1,18c0.1,0.2,0.8,0.3,0.8,0.3V900c0,0-3.8,116.5-3.5,117.4
	s3.5,2.5,3.5,2.5s-0.3,6.1,0,7.1c0.5,1,1.2,1.9,2,2.6c0,0,5.5,1,25.1,1s24.5-1,24.5-1c0.6-0.6,1.1-1.3,1.6-2
	c0.1-0.3,0.3-7.5,0.3-7.6s2.7-1.4,3.3-1.8c0.3-0.4,0.5-0.9,0.5-1.4c0,0-0.8-26.1-0.8-26.4s-2.4-69.7-2.8-83.4l6.5,0.3
	c0.3,0,0.6-1.4,0.7-1.5s0.8,0,0.8,0s-3.4,110.4-3.4,111.3s0.5,1,0.5,1l2.8,1.9l0.3,7.5l1.7,2.3c0,0,5.4,1,25,1s24.6-1,24.6-1
	l1.7-1.9l0.3-7.9c1.2-0.4,2.2-1,3.1-1.8c0.3-0.3,0.4-1.2,0.4-1.2l-3.6-111h0.8c0.1,0.6,0.3,1.1,0.8,1.5l6.3-0.2
	c-0.5,14.2-2.8,83-2.8,83.3s-0.8,26.4-0.8,26.4c0,0.5,0.1,1,0.5,1.4c0.5,0.4,3.3,1.7,3.3,1.8s0.2,7.4,0.3,7.6c0.5,0.7,1,1.4,1.6,2
	c0,0,5,1,24.5,1s25.1-1,25.1-1c0.8-0.8,1.4-1.6,1.9-2.6c0.3-1,0-7.1,0-7.1s3.2-1.6,3.5-2.5S1368.4,900.2,1368.4,900.2z
	 M1253.3,904.6h-0.9c-0.1-0.5-0.4-1.1-0.8-1.5l-6.5,0.5V468.9h0.7v-18.1l-0.5-1.2l1.4-1.2v-3.3l-1.3-1.2l-0.1-4.5h8v4.5l-1.4,1.1
	v3.4l1.3,1l-0.5,1c0,0,0.1,17.9,0.1,18.1s0.7,0.3,0.7,0.3L1253.3,904.6z M1307.7,904.8h-0.8V469c0.9-0.1,0.8-0.2,0.8-0.2v-18
	l-0.5-1.1l1.2-1v-3.3l-1.3-1.2v-4.4l7.7-0.1l-0.1,4.4l-1.3,1.2v3.3l1.4,1.2l-0.5,1.2v18.1h0.7v434.8l-6.4-0.4
	C1308,903.6,1307.7,904.8,1307.7,904.8L1307.7,904.8z"/>
<path class="st11" d="M1222.7,1030.8L1222.7,1030.8z"/>
<path class="st11" d="M1224.6,1030.8L1224.6,1030.8z"/>
<path class="st11" d="M1220.8,1030.8L1220.8,1030.8z"/>
<path class="st11" d="M1280.6,11L1280.6,11z"/>
<path class="st11" d="M1248.1,990.5c0-0.3-2.4-69.7-2.8-83.4l6.5,0.3c0.3,0,0.6-1.4,0.7-1.5s0.8,0,0.8,0v-1.2h-0.9
	c-0.1-0.5-0.4-1.1-0.8-1.5l-6.5,0.5V469h0.7v-18.1l-0.5-1.2l1.4-1.2v-3.3l-1.3-1.2l-0.1-4.5l7.9,0.3l0.1-4.2l-8,0.2v-2
	c-1.3-12.7-3.1-20.1-7-29.1s-11-18-13.5-20.3s-4.3-2.7-6.3-2.7h0.7c2.5,7.4,6.7,24.3,7.6,57.9c1.2,42.9,0.3,478.1,0.1,591h-1.7
	c14.3-0.2,18.1-1,18.1-1c0.6-0.6,1.1-1.3,1.6-2c0.1-0.3,0.3-7.5,0.3-7.6s2.7-1.4,3.3-1.8c0.3-0.4,0.5-0.9,0.5-1.4
	C1248.9,1016.8,1248.1,990.8,1248.1,990.5z"/>
<path class="st11" d="M1284.3,1030.8L1284.3,1030.8z"/>
<path class="st11" d="M1280.3,1030.8L1280.3,1030.8z"/>
<path class="st11" d="M1286.2,1030.8L1286.2,1030.8z"/>
<path class="st11" d="M1368.4,900.2V469.1c0,0,0.7-0.2,0.8-0.3l0.1-18l-0.6-1.2l1.3-1l-0.1-3.3l-1.3-1.1l-0.1-10.3
	c0,0-0.7-6.1-1.5-11c-1.5-8.6-4.5-16.8-8.7-24.4c-5-8.5-9.5-13.2-11.1-14.6c-1.5-1.3-3.5-1.9-5.5-1.8h-0.1c1.6,5.9,4.1,20,5.3,53.3
	c1.8,47.2,0.4,499.2,0.1,595.6c15-0.2,19.5-1,19.5-1c0.8-0.8,1.5-1.6,2-2.6c0.3-1,0-7.1,0-7.1s3.2-1.6,3.5-2.5
	S1368.4,900.2,1368.4,900.2z"/>
<path class="st11" d="M1307,904.8V469c0.9-0.1,0.8-0.2,0.8-0.2v-18l-0.5-1.1l1.2-1v-3.3l-1.3-1.2v-4.4l-0.1-4l-0.3-232.6
	c0.8-0.1,1.5-0.4,2.1-0.9c0.8-0.6,3.3-5.3,4.4-7.1s1.9-6.1,1.9-6.1c1.5-2.2,2.4-4.7,2.6-7.3V78.4c-1-13.7-4.7-27.1-10.8-39.4
	c-3.1-5.9-6.7-11.5-10.9-16.7c-3.7-4.7-6.8-7.9-8.7-9.2c-2-1.3-4.2-2.1-6.6-2.2c4.9,6.2,12.5,21.3,14.8,56.3
	c3.3,52.7,0.8,108.1,0.8,108.1s-0.4,15-8.1,24v831.4h-1.7c14.6-0.2,18.6-0.9,18.6-0.9l1.7-1.9l0.3-7.9c1.2-0.4,2.2-1,3.1-1.8
	c0.3-0.3,0.4-1.2,0.4-1.2l-3.6-111.1V904.8z"/>
<path class="st1" d="M1277.6,11.2l-0.9,0.2c0,0-23.6,20.8-30.4,63.6v107.9c0,0,1.6,13.1,10,19.8V1030c0,0,3.5,0.4,7.7,0.5V203.1
	c-6.2-5-10.2-12.1-11.3-20V75.5C1252.8,75.5,1261.6,27.7,1277.6,11.2z"/>
<path class="st1" d="M1216.3,382c0,0-16.9,15.4-20.4,50.6V1030c0,0,2.8,0.3,7,0.5V432.4c0,0,1.9-37.6,14.8-50.6
	C1217.2,381.8,1216.8,381.9,1216.3,382z"/>
<path class="st1" d="M1339.2,382c0,0-16.9,15.3-20.4,50.6V1030c0,0,2.8,0.3,7,0.4V432.4c0,0,1.9-37.6,14.8-50.5
	C1340.1,381.8,1339.6,381.9,1339.2,382z"/>
<path class="st1" d="M2560,410V0h-268.9c8.3,7.8,18.6,13.3,29.7,15.7c5.3,15.7,16.4,28.9,30.9,36.9c-34.7,57-16.6,131.4,40.5,166.1
	c10.1,6.1,21,10.7,32.4,13.7c-10.9,34.3,8,71,42.4,82c1.5,0.5,3,0.9,4.6,1.3c-17.9,30-9.8,68.8,18.6,89.2
	c-19.6,11.4-26.2,36.6-14.8,56.3c3,5.2,7.2,9.7,12.1,13.1c-70.9,28.8-105,109.6-76.3,180.4c7,17.2,17.3,32.8,30.4,45.9
	c-42.1,28.4-53.3,85.6-24.9,127.7c4.6,6.9,10.2,13.1,16.4,18.5c-27.3,12.1-39.6,44-27.5,71.2c1.4,3.3,3.2,6.4,5.2,9.3
	c-24.2,9.8-40.1,33.2-40.1,59.4c0,3.3,0.3,6.6,0.8,9.8c-33.7,1.3-59.9,29.6-58.7,63.2c0.5,13.4,5.4,26.2,13.9,36.6
	c-10.5,9.6-12.8,25.3-5.5,37.5c-14.5,5.2-25.4,17.3-29.3,32.2c-32.1-8.3-64.8,11.1-73.1,43.2c-0.9,3.5-1.5,7-1.7,10.6
	c-17.5-3.6-35.7,0.1-50.4,10.3c-43.7-36.2-108.5-30.1-144.7,13.6c-3.3,4-6.2,8.1-8.9,12.5c-1.8-0.3-3.6-0.5-5.4-0.5
	c-10.9,0-20.8,6.2-25.5,16c-37.6-15-80.4,1.4-98.3,37.7c-1.2-0.2-2.3-0.2-3.5-0.2c-9.7,0-18.8,5.2-23.7,13.6
	c-33.5-7.1-67.3,10.7-80.4,42.3c-31-25.3-76.7-20.8-102,10.2c-0.6,0.7-1.2,1.5-1.8,2.2c-8.1-19.6-30.7-29-50.3-20.8
	c-13.6,5.6-22.8,18.6-23.7,33.3c-12.4-10.6-30-12.8-44.6-5.6c-9.3-24.5-36.7-36.9-61.3-27.6c-11.5,4.3-20.8,13-26.1,24
	c-11.3-47.9-59.3-77.5-107.2-66.2c0,0-0.1,0-0.1,0c-5.4-26.6-31.4-43.9-58.1-38.4c-13.1,2.7-24.6,10.6-31.8,21.9
	c-14.2-4-29.4-0.5-40.5,9.1h-1.2c-20.2,0-36.5,16.4-36.5,36.5c0,4.5,0.8,8.9,2.4,13.1c-3.9,3.9-7.3,8.1-10.3,12.7
	c-18.9-5.6-39.1,2-49.8,18.5c-35.8-14.7-76.7-8.4-106.4,16.5c-22.1-14.6-51-13.6-72,2.6c-27.1-40-81.6-50.4-121.6-23.3
	c-4.1,2.8-7.9,5.9-11.4,9.3c-23.4-20.2-55.3-27.5-85.1-19.3c-31.5-37.7-87.6-42.8-125.4-11.3c-1.9,1.6-3.8,3.3-5.6,5.1
	c-13-10.2-31.7-8.6-42.8,3.6c-15.6-15.4-36.7-24-58.7-24c-2.4,0-4.7,0.1-7,0.3c-23.5-72.9-98.8-115.6-173.4-98.3
	c-8.7-40.6-46.9-68-88.2-63.3c0-0.2,0-0.3,0-0.5c0-19.6-11.2-37.5-28.9-46c13.2-55.3-12-112.7-61.8-140.4
	c10.8-29.6-1.1-62.6-28.2-78.6c30.6-37.7,24.8-93.1-12.9-123.7c-9.3-7.6-20.1-13.1-31.7-16.4c16.3-18.2,14.7-46.2-3.5-62.4
	c-2.9-2.6-6.2-4.8-9.6-6.6c48.4-22.6,69.4-80.2,46.8-128.6c-10.6-22.7-29.7-40.5-53.1-49.4c12.3-18.3,18.8-39.8,18.8-61.8
	c0-30.6-12.6-59.9-35-80.9c27.4-14,44.6-42.1,44.6-72.8c0-23.5-10.1-45.8-27.7-61.3C94.7,237.7,114.4,191,99.1,149
	c31.1-5,52.2-34.3,47.2-65.4c-1.4-8.9-5-17.4-10.4-24.7c9.4,4.4,19.6,6.6,29.9,6.6c28.6,0,54.4-17.2,65.5-43.5
	c4.5,1.1,9.2,1.6,13.8,1.6c18.8,0,36.5-8.7,48-23.6H0v1440h2560V410z"/>
<text transform="matrix(1 0 0 1 1263.36 754.83)" class="st4 st12 st13">F</text>
<text transform="matrix(1 0 0 1 1263.36 798.68)" class="st4 st12 st13">A</text>
<text transform="matrix(1 0 0 1 1263.36 842.53)" class="st4 st12 st13">L</text>
<text transform="matrix(1 0 0 1 1263.36 886.38)" class="st4 st12 st13">C</text>
<text transform="matrix(1 0 0 1 1263.36 930.23)" class="st4 st12 st13">O</text>
<text transform="matrix(1 0 0 1 1263.36 974.08)" class="st4 st12 st13">N</text>
<text transform="matrix(1 0 0 1 1253.42 146.36)" class="st4 st12 st14">FH</text>
</svg>
