<svg id="Layer_1" data-name="Layer 1" xmlns="http://www.w3.org/2000/svg" xmlns:xlink="http://www.w3.org/1999/xlink" viewBox="0 0 2560 1440"><defs><style>.cls-1{fill:url(#linear-gradient);}.cls-2{fill:#fff;}.cls-3{fill:#c2cfff;}.cls-4{fill:#d7e2ff;}.cls-13,.cls-14,.cls-5{fill:#5064ad;}.cls-6{fill:#999;}.cls-7{fill:#ccc;}.cls-8{fill:#666;}.cls-9{fill:#3d3d3d;}.cls-10{fill:#7a7a7a;}.cls-11{fill:#eaeaea;}.cls-12{fill:#c4c4c4;}.cls-13{font-size:36.54px;}.cls-13,.cls-14{font-family:A-SpaceDemo, A-Space Demo;}.cls-14{font-size:32.94px;}</style><linearGradient id="linear-gradient" x1="1280" y1="1435" x2="1280" y2="-489" gradientUnits="userSpaceOnUse"><stop offset="0" stop-color="#5064ad"/><stop offset="1"/></linearGradient></defs><title>Artboard 1</title><rect class="cls-1" width="2560" height="1440"/><circle class="cls-2" cx="186.64" cy="129.12" r="7.5"/><circle class="cls-2" cx="362.14" cy="337.61" r="7.5"/><circle class="cls-2" cx="575.13" cy="337.61" r="7.5"/><circle class="cls-2" cx="662.12" cy="738.09" r="7.5"/><circle class="cls-2" cx="857.11" cy="592.6" r="7.5"/><circle class="cls-2" cx="1064.1" cy="769.59" r="7.5"/><circle class="cls-2" cx="417.63" cy="745.59" r="7.5"/><circle class="cls-2" cx="201.64" cy="558.1" r="7.5"/><circle class="cls-2" cx="164.15" cy="793.59" r="7.5"/><circle class="cls-2" cx="1209.59" cy="337.61" r="7.5"/><circle class="cls-2" cx="842.11" cy="192.12" r="7.5"/><circle class="cls-2" cx="1460.08" cy="136.62" r="7.5"/><circle class="cls-2" cx="1578.57" cy="435.11" r="7.5"/><circle class="cls-2" cx="1668.57" cy="777.09" r="7.5"/><circle class="cls-2" cx="1964.06" cy="634.6" r="7.5"/><circle class="cls-2" cx="2057.05" cy="345.11" r="7.5"/><circle class="cls-2" cx="2204.04" cy="97.62" r="7.5"/><circle class="cls-2" cx="2400.53" cy="312.11" r="7.5"/><circle class="cls-2" cx="2439.53" cy="678.09" r="7.5"/><circle class="cls-2" cx="2232.54" cy="967.58" r="7.5"/><path class="cls-2" d="M636.17,403a2.17,2.17,0,1,0,2.16,2.17A2.17,2.17,0,0,0,636.17,403Z"/><path class="cls-2" d="M722.33,351.83A2.17,2.17,0,1,0,724.5,354,2.17,2.17,0,0,0,722.33,351.83Z"/><path class="cls-2" d="M931.33,294.33a2.17,2.17,0,1,0,2.17,2.17A2.17,2.17,0,0,0,931.33,294.33Z"/><path class="cls-2" d="M480.5,205a2.17,2.17,0,1,0,2.17,2.17A2.17,2.17,0,0,0,480.5,205Z"/><path class="cls-2" d="M235,214.33a2.17,2.17,0,1,0,2.17,2.17A2.17,2.17,0,0,0,235,214.33Z"/><path class="cls-2" d="M352.47,548.43a2.17,2.17,0,1,0,2.17,2.17A2.17,2.17,0,0,0,352.47,548.43Z"/><path class="cls-2" d="M834.61,733.76a2.17,2.17,0,1,0,2.17,2.16A2.17,2.17,0,0,0,834.61,733.76Z"/><path class="cls-2" d="M551,874.33a2.17,2.17,0,1,0,2.17,2.17A2.17,2.17,0,0,0,551,874.33Z"/><path class="cls-2" d="M97.83,387.83A2.17,2.17,0,1,0,100,390,2.17,2.17,0,0,0,97.83,387.83Z"/><path class="cls-2" d="M387.83,54.83A2.17,2.17,0,1,0,390,57,2.17,2.17,0,0,0,387.83,54.83Z"/><path class="cls-2" d="M1029.83,52.67a2.17,2.17,0,1,0,2.17,2.16A2.16,2.16,0,0,0,1029.83,52.67Z"/><path class="cls-2" d="M1690,17a2.17,2.17,0,1,0,2.17,2.17A2.17,2.17,0,0,0,1690,17Z"/><path class="cls-2" d="M1617.83,204.5a2.17,2.17,0,1,0,2.17,2.17A2.17,2.17,0,0,0,1617.83,204.5Z"/><path class="cls-2" d="M1452.58,467a2.17,2.17,0,1,0,2.17,2.17A2.17,2.17,0,0,0,1452.58,467Z"/><path class="cls-2" d="M1948.83,432.94a2.17,2.17,0,1,0,2.17,2.17A2.17,2.17,0,0,0,1948.83,432.94Z"/><path class="cls-2" d="M1916.83,233.83A2.17,2.17,0,1,0,1919,236,2.17,2.17,0,0,0,1916.83,233.83Z"/><path class="cls-2" d="M2247,103a2.17,2.17,0,1,0,2.17,2.16A2.17,2.17,0,0,0,2247,103Z"/><path class="cls-2" d="M2244.83,469.17a2.17,2.17,0,1,0,2.17,2.16A2.16,2.16,0,0,0,2244.83,469.17Z"/><path class="cls-2" d="M2073.83,815.83A2.17,2.17,0,1,0,2076,818,2.17,2.17,0,0,0,2073.83,815.83Z"/><path class="cls-2" d="M1699.83,1056.67a2.17,2.17,0,1,0,2.17,2.16A2.16,2.16,0,0,0,1699.83,1056.67Z"/><path class="cls-2" d="M1508.83,878.67a2.17,2.17,0,1,0,2.17,2.16A2.16,2.16,0,0,0,1508.83,878.67Z"/><path class="cls-2" d="M970,1010.33a2.17,2.17,0,1,0,2.17,2.17A2.17,2.17,0,0,0,970,1010.33Z"/><path class="cls-2" d="M744.5,1058.83a2.17,2.17,0,1,0,2.17,2.17A2.17,2.17,0,0,0,744.5,1058.83Z"/><path class="cls-3" d="M2560,695.32V585.83a59,59,0,0,0-78.91,70.29,156,156,0,0,0-217.82,183.43,63.76,63.76,0,0,0-97.06,54.35c0,.1,0,.19,0,.29a26.56,26.56,0,0,0-3.91-.29,27,27,0,0,0-27,27c0,.69,0,1.36.08,2a131.32,131.32,0,0,0-182.48,151,84.6,84.6,0,0,0-136.66,47.27,99.74,99.74,0,0,0-173.44,79.37,58.3,58.3,0,0,0-98.56,27.64A75.64,75.64,0,0,0,1464,1222a38.23,38.23,0,0,0-33-18.94c-.81,0-1.61,0-2.4.09a22.92,22.92,0,0,0-14.36-11.85c-47.8-71.3-56.66-201.81-56.66-201.81l-34.44-.15c2.67,67.33-10.41,79.41-10.41,79.41-16-24.08-18.09-80-18.09-80H1266s0,50.13-18.23,80c0,0-15-25.42-11.84-79.24l-33,.22s-3.07,93.77-55,197.75a25.74,25.74,0,0,0-16.75,6.62,47.92,47.92,0,0,0-42.44,13.2,49.22,49.22,0,0,0-35.81-15.39,49.89,49.89,0,0,0-8.44.73A61.47,61.47,0,0,0,954,1174.92a135,135,0,0,0-212.81,2.29A81.39,81.39,0,0,0,608,1144.05c.09-1.63.13-3.28.13-4.93a90,90,0,0,0-157-60.12c0-1,.08-2,.08-3a62.68,62.68,0,0,0-76.4-61.18,109.53,109.53,0,0,0-104.2-143.19c-1.21,0-2.42,0-3.62.06a43.5,43.5,0,0,0-39.88-60.87l-1.35,0A83.41,83.41,0,0,0,120,696.06a99.11,99.11,0,0,0-120-65v779H2560V695.32Z"/><path class="cls-4" d="M1200.33,1041.42s-8.5,49.75,18.1,109.75c0,0,19.9-27.5,18.15-109.75Z"/><path class="cls-4" d="M1262.47,1041.75s-9.72,47.5,18.09,109.75c0,0,21.19-32.25,18.16-109.75Z"/><path class="cls-4" d="M1360.12,1041.75h-36.25s-6.37,49.75,18.1,109.75C1342,1151.5,1364.75,1113.75,1360.12,1041.75Z"/><path class="cls-5" d="M2486.12,814a105.12,105.12,0,0,0-6.43,48.57,48.77,48.77,0,0,0-38.31,44.25,62.89,62.89,0,0,0-13.88-1.56,62.16,62.16,0,0,0-38.2,13.05,79.08,79.08,0,0,0-8.75-.49A80,80,0,0,0,2311.92,1039a47.32,47.32,0,0,0-12.92,32.55,47.91,47.91,0,0,0,.76,8.44,57.33,57.33,0,0,0-25,8.14,39.21,39.21,0,0,0-71.23,22.63c0,.39,0,.78,0,1.17a63.4,63.4,0,0,0-57.4,17.85,44.35,44.35,0,0,0-29.3,11.71,45.72,45.72,0,0,0-57.07,16.94,73.76,73.76,0,0,0-40.14-.71,84,84,0,0,0-158.25,55.08c-.48,0-1,0-1.44,0a57,57,0,0,0-55.33,43.31c-2.05.31-4.1.7-6.17,1.18a72,72,0,0,0-33.41,17.58,55.35,55.35,0,0,0-67.92,17.74,81,81,0,0,0-122.78,10.63,48.47,48.47,0,0,0-76.4-13.44,31.19,31.19,0,0,0-7.11-4.47,30.85,30.85,0,0,0-13.1-2.73,87.33,87.33,0,0,0-82.44-58.52h-.62c-1.88-16.69-13.56-30-28.45-32.56-5.76-19.32-19.43-35.42-38.77-42.74-24.76-9.37-52.06-1.82-70.69,17a49.47,49.47,0,0,0-73.21,25.73c-18.26,11.68-29.33,29.22-28.21,46.73a48.5,48.5,0,0,0-41.75,48c0,.61,0,1.21,0,1.81a30.92,30.92,0,0,0-3.87-.26,29.83,29.83,0,0,0-26.84,16.82,43.29,43.29,0,0,0-45.76,1.77,65.26,65.26,0,0,0-81.52.07,41,41,0,0,0-14.44-6.43,79.1,79.1,0,0,0-119.92-27.52,38.46,38.46,0,0,0-39.24,4.89,62.41,62.41,0,0,0-96.44,1.17,55.72,55.72,0,0,0-32.9-1.63,44.55,44.55,0,0,0-17.67-22.11A66.74,66.74,0,1,0,509.41,1218a47.28,47.28,0,0,0-36.91-17.68c-1.05,0-2.09.05-3.13.11a89.79,89.79,0,0,0-119-60.11c-13.3-6.35-32.28-7.95-52.35-3.53,0-.84.06-1.67.06-2.51A71.26,71.26,0,0,0,210,1065.06a89.26,89.26,0,0,0-88.69-79.27,91.08,91.08,0,0,0-12.44.86A43.51,43.51,0,0,0,53.32,949,37.51,37.51,0,0,0,21.13,916.1a63.08,63.08,0,0,0,.95-10.81A62.67,62.67,0,0,0,0,857.5V1400H2560V751.15C2529.05,754.94,2499.53,778.61,2486.12,814Z"/><path class="cls-2" d="M1216.5,1093s11.17-26.67,11.17-54.33h-21.84S1204.58,1065.83,1216.5,1093Z"/><path class="cls-2" d="M1279.77,1093s11.17-26.67,11.17-54.33H1269.1S1267.85,1065.83,1279.77,1093Z"/><path class="cls-2" d="M1331,1038.67s-1.25,27.16,10.66,54.33c0,0,11.17-26.67,11.17-54.33Z"/><path class="cls-6" d="M1198.63,1028.53s-3.41,5-5.35,16.22c0,0,0,.44.28.5l.48.06a58.9,58.9,0,0,1,5-16.78Z"/><path class="cls-7" d="M1194.78,1045.31a54.59,54.59,0,0,1,4-13.77c.33-1.12.68-2.15,1-3h-.78a58.9,58.9,0,0,0-5,16.78h0l.73.06Z"/><path class="cls-8" d="M1207.49,1039.3a48.48,48.48,0,0,1,2.15-6.24c-.46-2-.88-3.67-1.1-4.5h-1.23a40.89,40.89,0,0,0-1.44,4.47C1206.5,1035.15,1207.05,1037.35,1207.49,1039.3Z"/><path class="cls-6" d="M1206.53,1028.56h-.44a18.65,18.65,0,0,0-1,1.91l.28.82C1206,1029.55,1206.53,1028.56,1206.53,1028.56Z"/><path class="cls-9" d="M1211.08,1030.14c-.2-.56-.4-1.11-.6-1.64h-2v.06c.22.83.64,2.45,1.1,4.5A26.13,26.13,0,0,1,1211.08,1030.14Z"/><path class="cls-7" d="M1205.87,1033a40.89,40.89,0,0,1,1.44-4.47h-.78s-.51,1-1.21,2.73C1205.51,1031.86,1205.69,1032.44,1205.87,1033Z"/><path class="cls-8" d="M1231,1029.63c.51,1.3,1,2.75,1.43,4.24.18-.46.35-.88.52-1.27-.4-1.72-.74-3.08-.94-3.82h-1.23l-.32.85Z"/><path class="cls-6" d="M1230,1028.78h-.44s-.19.29-.5.85h.54Z"/><path class="cls-9" d="M1234.35,1029.81c-.13-.37-.27-.73-.4-1.08h-2v0c.2.74.54,2.1.94,3.82A25.14,25.14,0,0,1,1234.35,1029.81Z"/><path class="cls-7" d="M1230.46,1029.63l.32-.85H1230l-.4.85Z"/><path class="cls-8" d="M1223.58,1036.53a38.56,38.56,0,0,1,2.34-5.65c-.36-1.55-.67-2.77-.85-3.45h-1.23a42.69,42.69,0,0,0-1.49,4.61C1222.81,1033.53,1223.22,1035.06,1223.58,1036.53Z"/><path class="cls-6" d="M1223.06,1027.43h-.44a18.07,18.07,0,0,0-1.12,2c.1.28.2.56.29.84C1222.52,1028.47,1223.06,1027.43,1223.06,1027.43Z"/><path class="cls-9" d="M1226.61,1029.68h1.22c-.26-.8-.54-1.58-.83-2.31h-2l0,.06c.18.68.49,1.9.85,3.45C1226.35,1030.08,1226.61,1029.68,1226.61,1029.68Z"/><path class="cls-7" d="M1222.35,1032a42.69,42.69,0,0,1,1.49-4.61h-.78s-.54,1-1.27,2.87C1222,1030.87,1222.17,1031.45,1222.35,1032Z"/><path class="cls-8" d="M1222,1042.46a113.55,113.55,0,0,0-2.8-14.06h-1.23a39.62,39.62,0,0,0-1.25,3.77,101.83,101.83,0,0,1,3.18,13.29l1.52-.08C1221.55,1044.35,1221.75,1043.38,1222,1042.46Z"/><path class="cls-6" d="M1217.14,1028.4h-.44a14.59,14.59,0,0,0-.84,1.48c.1.25.19.49.28.74C1216.73,1029.21,1217.14,1028.4,1217.14,1028.4Z"/><path class="cls-9" d="M1222,1042.46a60.26,60.26,0,0,1,1.63-5.93c-.36-1.47-.77-3-1.23-4.49-.18-.59-.37-1.17-.56-1.74-.09-.28-.19-.56-.29-.84s-.27-.75-.41-1.11h-1.95v.05A113.55,113.55,0,0,1,1222,1042.46Z"/><path class="cls-7" d="M1216.67,1032.17a39.62,39.62,0,0,1,1.25-3.77h-.78s-.41.81-1,2.22C1216.32,1031.13,1216.5,1031.64,1216.67,1032.17Z"/><path class="cls-6" d="M1202.57,1029.09h-1.23a59.35,59.35,0,0,0-2.76,10.33c-.65,3.64-.85,6.64-.85,6.65a54.4,54.4,0,0,0,7.93-.06A104.46,104.46,0,0,0,1202.57,1029.09Z"/><path class="cls-6" d="M1197.69,1046.07l-2.14-.19C1196,1045.93,1196.74,1046,1197.69,1046.07Z"/><path class="cls-6" d="M1200.56,1029.09h.66c-.06-.21-.11-.4-.15-.56h-1.23c-.34.86-.69,1.89-1,3a54.59,54.59,0,0,0-4,13.77v.07l-.73-.06.73.07c0,.13,0,.38.28.42l.48.07A58.9,58.9,0,0,1,1200.56,1029.09Z"/><path class="cls-10" d="M1207.49,1039.3c-.44-2-1-4.15-1.62-6.27-.18-.59-.36-1.17-.55-1.74l-.28-.82c-.17-.49-.35-1-.53-1.43h-1.29l-.21-.56h-2v0c0,.16.09.35.15.56h1.35a104.46,104.46,0,0,1,3.09,16.92h0l.38,0a.51.51,0,0,1,0-.09C1206.46,1043.37,1207,1041.19,1207.49,1039.3Z"/><path class="cls-7" d="M1198.58,1039.42a59.35,59.35,0,0,1,2.76-10.33h-.78a58.9,58.9,0,0,0-5,16.79h0l2.14.19h0S1197.93,1043.06,1198.58,1039.42Z"/><path class="cls-6" d="M1213.82,1029.66h-1.23a59,59,0,0,0-2.76,10.32c-.65,3.64-.85,6.64-.85,6.65a54.4,54.4,0,0,0,7.93-.06A104.06,104.06,0,0,0,1213.82,1029.66Z"/><path class="cls-6" d="M1208.94,1046.63l-2.14-.19C1207.25,1046.49,1208,1046.57,1208.94,1046.63Z"/><path class="cls-6" d="M1211.81,1029.66h-.43a4.82,4.82,0,0,0-.3.48,26.13,26.13,0,0,0-1.44,2.92,48.48,48.48,0,0,0-2.15,6.24c-.52,1.89-1,4.07-1.46,6.58a.51.51,0,0,0,0,.09.4.4,0,0,0,.27.41l.48.06A58.76,58.76,0,0,1,1211.81,1029.66Z"/><path class="cls-10" d="M1216.67,1032.17c-.17-.53-.35-1-.53-1.55-.09-.25-.18-.49-.28-.74l-.1-.28h-2v.06a104.06,104.06,0,0,1,3.09,16.91h0l.57,0,.13,0c.62,0,1.24-.1,1.87-.18,0,0,.4,0,.44-.34a4.6,4.6,0,0,0-.07-.52A101.83,101.83,0,0,0,1216.67,1032.17Z"/><path class="cls-7" d="M1209.83,1040a59,59,0,0,1,2.76-10.32h-.78a58.76,58.76,0,0,0-5,16.78h0l2.14.19h0S1209.18,1043.62,1209.83,1040Z"/><path class="cls-6" d="M1235.82,1029.4a53.89,53.89,0,0,0-2.36,8.29c1.07,4.32,1.71,8.08,1.7,8.31a.4.4,0,0,1-.44.35l-1.06.1a52,52,0,0,0,6.47-.14,103.66,103.66,0,0,0-3.08-16.91Z"/><path class="cls-6" d="M1232.43,1033.87c.11.37.22.75.32,1.13a49.05,49.05,0,0,1,2.29-5.6h-.44l-.25.41a25.14,25.14,0,0,0-1.4,2.79C1232.78,1033,1232.61,1033.41,1232.43,1033.87Z"/><path class="cls-10" d="M1237,1029.35l0,.05a103.66,103.66,0,0,1,3.08,16.91h0l.57-.06h.14c.62,0,1.23-.1,1.86-.18,0,0,.41,0,.44-.35a91.26,91.26,0,0,0-4.15-16.37Z"/><path class="cls-7" d="M1232.75,1035c.26.9.49,1.81.71,2.69a53.89,53.89,0,0,1,2.36-8.29H1235A49.05,49.05,0,0,0,1232.75,1035Z"/><path class="cls-6" d="M1229.06,1029.68v0l0,0h-1.2a59.35,59.35,0,0,0-2.76,10.33c-.65,3.64-.85,6.64-.85,6.65a54.4,54.4,0,0,0,7.93-.06A104.46,104.46,0,0,0,1229.06,1029.68Z"/><path class="cls-6" d="M1224.18,1046.66l-2.14-.19C1222.49,1046.52,1223.23,1046.59,1224.18,1046.66Z"/><path class="cls-6" d="M1227.05,1029.68h-.44s-.26.4-.69,1.2a38.56,38.56,0,0,0-2.34,5.65,60.26,60.26,0,0,0-1.63,5.93c-.2.92-.4,1.89-.58,2.92,0,.18-.07.34-.1.52,0,0,0,.44.28.5l.48.07A58.9,58.9,0,0,1,1227.05,1029.68Z"/><path class="cls-10" d="M1235.16,1046c0-.23-.63-4-1.7-8.31-.22-.88-.45-1.79-.71-2.69-.1-.38-.21-.76-.32-1.13-.44-1.49-.92-2.94-1.43-4.24h-2v0a104.46,104.46,0,0,1,3.09,16.92h0l.57-.06h.13l.81-.08,1.06-.1A.4.4,0,0,0,1235.16,1046Z"/><path class="cls-7" d="M1225.07,1040a59.35,59.35,0,0,1,2.76-10.33h-.78a58.9,58.9,0,0,0-5,16.79h0l2.14.19h0S1224.42,1043.65,1225.07,1040Z"/><path class="cls-6" d="M1260.33,1028.53s-3.41,5-5.34,16.22c0,0,0,.44.28.5l.48.06a58.9,58.9,0,0,1,5-16.78Z"/><path class="cls-7" d="M1256.49,1045.31a54.69,54.69,0,0,1,4-13.77c.34-1.12.68-2.15,1-3h-.78a58.9,58.9,0,0,0-5,16.78h0l.73.06A.14.14,0,0,1,1256.49,1045.31Z"/><path class="cls-8" d="M1269.2,1039.3a50.29,50.29,0,0,1,2.14-6.24c-.46-2-.87-3.67-1.09-4.5H1269a40.74,40.74,0,0,0-1.45,4.47C1268.21,1035.15,1268.76,1037.35,1269.2,1039.3Z"/><path class="cls-6" d="M1268.24,1028.56h-.44a17.24,17.24,0,0,0-1.06,1.91c.1.27.19.55.28.82C1267.73,1029.55,1268.24,1028.56,1268.24,1028.56Z"/><path class="cls-9" d="M1272.78,1030.14c-.19-.56-.39-1.11-.6-1.64h-2l0,.06c.22.83.63,2.45,1.09,4.5A30.32,30.32,0,0,1,1272.78,1030.14Z"/><path class="cls-7" d="M1267.57,1033a40.74,40.74,0,0,1,1.45-4.47h-.78s-.51,1-1.22,2.73C1267.21,1031.86,1267.39,1032.44,1267.57,1033Z"/><path class="cls-8" d="M1292.7,1029.63c.52,1.3,1,2.75,1.43,4.24.18-.46.36-.88.53-1.27-.4-1.72-.75-3.08-.94-3.82h-1.23c-.11.27-.22.56-.32.85Z"/><path class="cls-6" d="M1291.71,1028.78h-.44s-.19.29-.5.85h.53C1291.55,1029.09,1291.71,1028.78,1291.71,1028.78Z"/><path class="cls-9" d="M1296.06,1029.81c-.14-.37-.27-.73-.41-1.08h-2l0,0c.19.74.54,2.1.94,3.82A23.45,23.45,0,0,1,1296.06,1029.81Z"/><path class="cls-7" d="M1292.17,1029.63c.1-.29.21-.58.32-.85h-.78s-.16.31-.41.85Z"/><path class="cls-8" d="M1285.28,1036.53a38.31,38.31,0,0,1,2.35-5.65c-.36-1.55-.68-2.77-.86-3.45h-1.23a45.19,45.19,0,0,0-1.48,4.61C1284.51,1033.53,1284.92,1035.06,1285.28,1036.53Z"/><path class="cls-6" d="M1284.76,1027.43h-.43a16.22,16.22,0,0,0-1.12,2l.29.84C1284.23,1028.47,1284.76,1027.43,1284.76,1027.43Z"/><path class="cls-9" d="M1288.32,1029.68h1.22c-.27-.8-.54-1.58-.83-2.31h-2v.06c.18.68.5,1.9.86,3.45C1288.05,1030.08,1288.32,1029.68,1288.32,1029.68Z"/><path class="cls-7" d="M1284.06,1032a45.19,45.19,0,0,1,1.48-4.61h-.78s-.53,1-1.26,2.87C1283.69,1030.87,1283.88,1031.45,1284.06,1032Z"/><path class="cls-8" d="M1283.66,1042.46a115.5,115.5,0,0,0-2.8-14.06h-1.23a37,37,0,0,0-1.25,3.77,101.83,101.83,0,0,1,3.18,13.29l1.51-.08C1283.26,1044.35,1283.45,1043.38,1283.66,1042.46Z"/><path class="cls-6" d="M1278.85,1028.4h-.44a14.59,14.59,0,0,0-.84,1.48c.09.25.19.49.28.74C1278.44,1029.21,1278.85,1028.4,1278.85,1028.4Z"/><path class="cls-9" d="M1283.66,1042.46a60.49,60.49,0,0,1,1.62-5.93c-.36-1.47-.77-3-1.22-4.49-.18-.59-.37-1.17-.56-1.74l-.29-.84c-.14-.38-.27-.75-.42-1.11h-2l0,.05A115.5,115.5,0,0,1,1283.66,1042.46Z"/><path class="cls-7" d="M1278.38,1032.17a37,37,0,0,1,1.25-3.77h-.78s-.41.81-1,2.22C1278,1031.13,1278.21,1031.64,1278.38,1032.17Z"/><path class="cls-6" d="M1264.28,1029.09h-1.23a57.62,57.62,0,0,0-2.76,10.33c-.65,3.64-.86,6.64-.86,6.65a54.4,54.4,0,0,0,7.93-.06A103.61,103.61,0,0,0,1264.28,1029.09Z"/><path class="cls-6" d="M1259.39,1046.07l-2.13-.19C1257.71,1045.93,1258.44,1046,1259.39,1046.07Z"/><path class="cls-6" d="M1262.27,1029.09h.66c-.06-.21-.11-.4-.15-.56h-1.23c-.35.86-.69,1.89-1,3a54.69,54.69,0,0,0-4,13.77.14.14,0,0,0,0,.07l-.73-.06.73.07c0,.13,0,.38.28.42l.48.07A58.9,58.9,0,0,1,1262.27,1029.09Z"/><path class="cls-10" d="M1269.2,1039.3c-.44-2-1-4.15-1.63-6.27-.18-.59-.36-1.17-.55-1.74-.09-.27-.18-.55-.28-.82-.17-.49-.34-1-.53-1.43h-1.29c-.07-.19-.13-.38-.21-.56h-2l0,0c0,.16.09.35.15.56h1.35a103.61,103.61,0,0,1,3.08,16.92h0l.38,0v-.09A65.06,65.06,0,0,1,1269.2,1039.3Z"/><path class="cls-7" d="M1260.29,1039.42a57.62,57.62,0,0,1,2.76-10.33h-.78a58.9,58.9,0,0,0-5,16.79h0l2.13.19h0S1259.64,1043.06,1260.29,1039.42Z"/><path class="cls-6" d="M1275.53,1029.66h-1.23a57.28,57.28,0,0,0-2.76,10.32c-.65,3.64-.86,6.64-.86,6.65a54.4,54.4,0,0,0,7.93-.06A103.22,103.22,0,0,0,1275.53,1029.66Z"/><path class="cls-6" d="M1270.64,1046.63l-2.13-.19C1269,1046.49,1269.69,1046.57,1270.64,1046.63Z"/><path class="cls-6" d="M1273.52,1029.66h-.44s-.11.16-.3.48a30.32,30.32,0,0,0-1.44,2.92,50.29,50.29,0,0,0-2.14,6.24,65.06,65.06,0,0,0-1.46,6.58v.09a.41.41,0,0,0,.28.41l.48.06A58.76,58.76,0,0,1,1273.52,1029.66Z"/><path class="cls-10" d="M1278.38,1032.17c-.17-.53-.35-1-.53-1.55-.09-.25-.19-.49-.28-.74,0-.09-.07-.19-.11-.28h-2l0,.06a103.22,103.22,0,0,1,3.08,16.91h0l.57,0,.14,0c.61,0,1.23-.1,1.86-.18,0,0,.41,0,.44-.34,0,0,0-.23-.06-.52A101.83,101.83,0,0,0,1278.38,1032.17Z"/><path class="cls-7" d="M1271.54,1040a57.28,57.28,0,0,1,2.76-10.32h-.78a58.76,58.76,0,0,0-5,16.78h0l2.13.19h0S1270.89,1043.62,1271.54,1040Z"/><path class="cls-6" d="M1297.53,1029.4a52.79,52.79,0,0,0-2.36,8.29,81.57,81.57,0,0,1,1.69,8.31c0,.38-.44.35-.44.35l-1.05.1a52,52,0,0,0,6.47-.14,104.51,104.51,0,0,0-3.09-16.91Z"/><path class="cls-6" d="M1294.13,1033.87l.33,1.13a48.12,48.12,0,0,1,2.28-5.6h-.43a4.73,4.73,0,0,0-.25.41,23.45,23.45,0,0,0-1.4,2.79C1294.49,1033,1294.31,1033.41,1294.13,1033.87Z"/><path class="cls-10" d="M1298.74,1029.35v.05a104.51,104.51,0,0,1,3.09,16.91h0l.57-.06h.13c.62,0,1.24-.1,1.87-.18,0,0,.41,0,.44-.35a90.71,90.71,0,0,0-4.16-16.37Z"/><path class="cls-7" d="M1294.46,1035c.25.9.49,1.81.71,2.69a52.79,52.79,0,0,1,2.36-8.29h-.79A48.12,48.12,0,0,0,1294.46,1035Z"/><path class="cls-6" d="M1290.77,1029.68v0l0,0h-1.2a57.62,57.62,0,0,0-2.76,10.33c-.65,3.64-.86,6.64-.86,6.65a54.4,54.4,0,0,0,7.93-.06A103.61,103.61,0,0,0,1290.77,1029.68Z"/><path class="cls-6" d="M1285.88,1046.66l-2.13-.19C1284.2,1046.52,1284.93,1046.59,1285.88,1046.66Z"/><path class="cls-6" d="M1288.76,1029.68h-.44s-.27.4-.69,1.2a38.31,38.31,0,0,0-2.35,5.65,60.49,60.49,0,0,0-1.62,5.93c-.21.92-.4,1.89-.59,2.92l-.09.52s0,.44.28.5l.47.07A59.09,59.09,0,0,1,1288.76,1029.68Z"/><path class="cls-10" d="M1296.86,1046a81.57,81.57,0,0,0-1.69-8.31c-.22-.88-.46-1.79-.71-2.69l-.33-1.13c-.44-1.49-.91-2.94-1.43-4.24h-1.94v0a103.61,103.61,0,0,1,3.08,16.92h0l.57-.06h.14l.81-.08,1.05-.1S1296.83,1046.38,1296.86,1046Z"/><path class="cls-7" d="M1286.78,1040a57.62,57.62,0,0,1,2.76-10.33h-.78a59.09,59.09,0,0,0-5,16.79h0l2.13.19h0S1286.13,1043.65,1286.78,1040Z"/><path class="cls-6" d="M1321.94,1028.53s-3.41,5-5.34,16.22c0,0,0,.44.28.5l.47.06a59.09,59.09,0,0,1,5-16.78Z"/><path class="cls-7" d="M1318.1,1045.31a54.27,54.27,0,0,1,4-13.77c.33-1.12.68-2.15,1-3h-.78a59.09,59.09,0,0,0-5,16.78h0l.73.06A.14.14,0,0,1,1318.1,1045.31Z"/><path class="cls-8" d="M1330.81,1039.3a48.68,48.68,0,0,1,2.14-6.24c-.46-2-.87-3.67-1.09-4.5h-1.23a40.74,40.74,0,0,0-1.45,4.47C1329.81,1035.15,1330.36,1037.35,1330.81,1039.3Z"/><path class="cls-6" d="M1329.85,1028.56h-.44a17.24,17.24,0,0,0-1.06,1.91c.1.27.19.55.28.82C1329.34,1029.55,1329.85,1028.56,1329.85,1028.56Z"/><path class="cls-9" d="M1334.39,1030.14c-.19-.56-.39-1.11-.6-1.64h-2l0,.06c.22.83.63,2.45,1.09,4.5A28.07,28.07,0,0,1,1334.39,1030.14Z"/><path class="cls-7" d="M1329.18,1033a40.74,40.74,0,0,1,1.45-4.47h-.78s-.51,1-1.22,2.73C1328.82,1031.86,1329,1032.44,1329.18,1033Z"/><path class="cls-8" d="M1354.31,1029.63c.52,1.3,1,2.75,1.43,4.24.18-.46.36-.88.53-1.27-.4-1.72-.75-3.08-.94-3.82h-1.23c-.11.27-.22.56-.32.85Z"/><path class="cls-6" d="M1353.32,1028.78h-.44s-.19.29-.5.85h.53C1353.16,1029.09,1353.32,1028.78,1353.32,1028.78Z"/><path class="cls-9" d="M1357.66,1029.81c-.13-.37-.26-.73-.4-1.08h-2l0,0c.19.74.54,2.1.94,3.82A25.66,25.66,0,0,1,1357.66,1029.81Z"/><path class="cls-7" d="M1353.78,1029.63c.1-.29.21-.58.32-.85h-.78s-.16.31-.41.85Z"/><path class="cls-8" d="M1346.89,1036.53a37.22,37.22,0,0,1,2.35-5.65c-.36-1.55-.68-2.77-.86-3.45h-1.23a42.83,42.83,0,0,0-1.48,4.61C1346.12,1033.53,1346.53,1035.06,1346.89,1036.53Z"/><path class="cls-6" d="M1346.37,1027.43h-.43a16.22,16.22,0,0,0-1.12,2l.29.84C1345.84,1028.47,1346.37,1027.43,1346.37,1027.43Z"/><path class="cls-9" d="M1349.93,1029.68h1.22c-.27-.8-.54-1.58-.83-2.31h-2v.06c.18.68.5,1.9.86,3.45C1349.66,1030.08,1349.93,1029.68,1349.93,1029.68Z"/><path class="cls-7" d="M1345.67,1032a42.83,42.83,0,0,1,1.48-4.61h-.78s-.53,1-1.26,2.87C1345.3,1030.87,1345.49,1031.45,1345.67,1032Z"/><path class="cls-8" d="M1345.27,1042.46a117.52,117.52,0,0,0-2.8-14.06h-1.23a37,37,0,0,0-1.25,3.77,101.83,101.83,0,0,1,3.18,13.29l1.51-.08C1344.87,1044.35,1345.06,1043.38,1345.27,1042.46Z"/><path class="cls-6" d="M1340.46,1028.4H1340a14.59,14.59,0,0,0-.84,1.48c.09.25.18.49.28.74C1340.05,1029.21,1340.46,1028.4,1340.46,1028.4Z"/><path class="cls-9" d="M1345.27,1042.46a60.49,60.49,0,0,1,1.62-5.93c-.36-1.47-.77-3-1.22-4.49-.18-.59-.37-1.17-.56-1.74l-.29-.84q-.21-.57-.42-1.11h-2l0,.05A117.52,117.52,0,0,1,1345.27,1042.46Z"/><path class="cls-7" d="M1340,1032.17a37,37,0,0,1,1.25-3.77h-.78s-.41.81-1,2.22C1339.64,1031.13,1339.82,1031.64,1340,1032.17Z"/><path class="cls-6" d="M1325.89,1029.09h-1.23a57.62,57.62,0,0,0-2.76,10.33c-.65,3.64-.86,6.64-.86,6.65a54.4,54.4,0,0,0,7.93-.06A103.61,103.61,0,0,0,1325.89,1029.09Z"/><path class="cls-6" d="M1321,1046.07l-2.13-.19C1319.32,1045.93,1320.05,1046,1321,1046.07Z"/><path class="cls-6" d="M1323.88,1029.09h.65l-.14-.56h-1.23c-.35.86-.7,1.89-1,3a54.27,54.27,0,0,0-4,13.77.14.14,0,0,0,0,.07l-.73-.06.73.07c0,.13.05.38.28.42l.47.07A59.09,59.09,0,0,1,1323.88,1029.09Z"/><path class="cls-10" d="M1330.81,1039.3c-.45-2-1-4.15-1.63-6.27-.18-.59-.36-1.17-.55-1.74-.09-.27-.18-.55-.28-.82-.17-.49-.35-1-.53-1.43h-1.29c-.07-.19-.13-.38-.21-.56h-2l0,0,.14.56h1.36A103.61,103.61,0,0,1,1329,1046h0l.38,0v-.09A65.06,65.06,0,0,1,1330.81,1039.3Z"/><path class="cls-7" d="M1321.9,1039.42a57.62,57.62,0,0,1,2.76-10.33h-.78a59.09,59.09,0,0,0-5,16.79h0l2.13.19h0S1321.25,1043.06,1321.9,1039.42Z"/><path class="cls-6" d="M1337.14,1029.66h-1.23a57.28,57.28,0,0,0-2.76,10.32c-.65,3.64-.86,6.64-.86,6.65a54.4,54.4,0,0,0,7.93-.06A103.22,103.22,0,0,0,1337.14,1029.66Z"/><path class="cls-6" d="M1332.25,1046.63l-2.13-.19C1330.57,1046.49,1331.3,1046.57,1332.25,1046.63Z"/><path class="cls-6" d="M1335.13,1029.66h-.44s-.11.16-.3.48a28.07,28.07,0,0,0-1.44,2.92,48.68,48.68,0,0,0-2.14,6.24,65.06,65.06,0,0,0-1.46,6.58v.09a.41.41,0,0,0,.28.41l.47.06A59,59,0,0,1,1335.13,1029.66Z"/><path class="cls-10" d="M1340,1032.17c-.17-.53-.35-1-.53-1.55-.1-.25-.19-.49-.28-.74,0-.09-.07-.19-.11-.28h-2l0,.06a103.22,103.22,0,0,1,3.08,16.91h0l.57,0,.14,0c.61,0,1.23-.1,1.86-.18,0,0,.41,0,.44-.34,0,0,0-.23-.06-.52A101.83,101.83,0,0,0,1340,1032.17Z"/><path class="cls-7" d="M1333.15,1040a57.28,57.28,0,0,1,2.76-10.32h-.78a59,59,0,0,0-5,16.78h0l2.13.19h0S1332.5,1043.62,1333.15,1040Z"/><path class="cls-6" d="M1359.13,1029.4a54,54,0,0,0-2.35,8.29,81.57,81.57,0,0,1,1.69,8.31c0,.38-.44.35-.44.35l-1,.1a52,52,0,0,0,6.47-.14,104.51,104.51,0,0,0-3.09-16.91Z"/><path class="cls-6" d="M1355.74,1033.87l.33,1.13a48.12,48.12,0,0,1,2.28-5.6h-.43s-.1.14-.26.41a25.66,25.66,0,0,0-1.39,2.79C1356.1,1033,1355.92,1033.41,1355.74,1033.87Z"/><path class="cls-10" d="M1362.3,1029.35h-2v.05a104.51,104.51,0,0,1,3.09,16.91h0l.57-.06h.13c.62,0,1.24-.1,1.87-.18,0,0,.41,0,.44-.35A90.71,90.71,0,0,0,1362.3,1029.35Z"/><path class="cls-7" d="M1356.07,1035c.25.9.49,1.81.71,2.69a54,54,0,0,1,2.35-8.29h-.78A48.12,48.12,0,0,0,1356.07,1035Z"/><path class="cls-6" d="M1352.38,1029.68v0l0,0h-1.19a57.62,57.62,0,0,0-2.76,10.33c-.65,3.64-.86,6.64-.86,6.65a54.4,54.4,0,0,0,7.93-.06A103.61,103.61,0,0,0,1352.38,1029.68Z"/><path class="cls-6" d="M1347.49,1046.66l-2.13-.19C1345.81,1046.52,1346.54,1046.59,1347.49,1046.66Z"/><path class="cls-6" d="M1350.37,1029.68h-.44s-.27.4-.69,1.2a37.22,37.22,0,0,0-2.35,5.65,60.49,60.49,0,0,0-1.62,5.93c-.21.92-.4,1.89-.59,2.92l-.09.52s0,.44.28.5l.47.07A59.09,59.09,0,0,1,1350.37,1029.68Z"/><path class="cls-10" d="M1358.47,1046a81.57,81.57,0,0,0-1.69-8.31c-.22-.88-.46-1.79-.71-2.69l-.33-1.13c-.44-1.49-.91-2.94-1.43-4.24h-1.94v0a103.61,103.61,0,0,1,3.08,16.92h0l.57-.06h.14l.81-.08,1-.1S1358.44,1046.38,1358.47,1046Z"/><path class="cls-7" d="M1348.39,1040a57.62,57.62,0,0,1,2.76-10.33h-.78a59.09,59.09,0,0,0-5,16.79h0l2.13.19h0S1347.74,1043.65,1348.39,1040Z"/><path class="cls-11" d="M1368.38,900.21l-.05-431.13s.67-.16.75-.33l.09-18-.59-1.17,1.25-1-.12-3.33-1.33-1.13-.09-10.33s-.71-6.08-1.46-11a78.26,78.26,0,0,0-8.7-24.42c-5-8.46-9.55-13.21-11.09-14.62a8,8,0,0,0-5.5-1.84c-2,0-3.83.38-6.29,2.67s-9.58,11.21-13.46,20.25-5.71,16.46-7,29.12l0,2.21-7.88-.29-.25-232.62a4.65,4.65,0,0,0,2.08-.92c.83-.58,3.25-5.25,4.37-7.08s2-6.09,2-6.09a14.31,14.31,0,0,0,2.54-7.29V78.42A105,105,0,0,0,1306.79,39a98.2,98.2,0,0,0-10.91-16.71c-3.73-4.67-6.81-7.89-8.71-9.16a12.5,12.5,0,0,0-14.54.33c-3.5,2.71-12.05,11.54-18.09,23.46s-11.62,28.25-11.87,40.5-.5,101.37,0,105.29a12.68,12.68,0,0,0,2.45,6.29c-.2.21.42,2.25,1.42,4.92s4,7.75,5.08,8.42a7.1,7.1,0,0,0,2,.87l-.21,232.54-8.09.14,0-2.1c-1.29-12.66-3.13-20.08-7-29.12s-11-18-13.46-20.25-4.29-2.71-6.29-2.67a8,8,0,0,0-5.5,1.84c-1.54,1.41-6.08,6.16-11.08,14.62a78.32,78.32,0,0,0-8.71,24.42c-.75,5-1.46,11-1.46,11l-.08,10.33-1.34,1.13-.12,3.33,1.25,1-.59,1.17.09,18c.08.17.75.33.75.33l0,431.13s-3.8,116.5-3.46,117.37,3.5,2.46,3.5,2.46-.34,6.09,0,7.09a10.17,10.17,0,0,0,2,2.62s5.5,1,25.08,1,24.54-1,24.54-1a13.38,13.38,0,0,0,1.58-2c.13-.25.3-7.46.3-7.63s2.7-1.41,3.25-1.83a2,2,0,0,0,.5-1.42s-.8-26.08-.8-26.41-2.36-69.65-2.83-83.42l6.54.29c.29,0,.63-1.41.71-1.54s.83,0,.83,0-3.37,110.38-3.37,111.33.46,1,.46,1l2.83,1.92.29,7.5,1.71,2.29s5.38,1,25,1,24.63-1,24.63-1l1.7-1.93.34-7.9a8.49,8.49,0,0,0,3.12-1.75c.34-.29.38-1.17.38-1.17L1307,905.88h.75a2.49,2.49,0,0,0,.75,1.45l6.29-.17c-.49,14.16-2.83,83-2.83,83.26s-.79,26.41-.79,26.41a1.91,1.91,0,0,0,.5,1.42c.54.42,3.25,1.67,3.25,1.83s.16,7.38.29,7.63a13.38,13.38,0,0,0,1.58,2s5,1,24.54,1,25.09-1,25.09-1a10.2,10.2,0,0,0,1.95-2.62c.34-1,0-7.09,0-7.09s3.17-1.58,3.5-2.46S1368.38,900.21,1368.38,900.21Zm-115.05,4.37-.91,0a4.33,4.33,0,0,0-.75-1.5l-6.5.49V468.92h.66V450.83l-.54-1.16,1.42-1.17v-3.25l-1.33-1.17-.08-4.45h8v4.54l-1.42,1.08v3.38l1.25,1-.54.95s.09,17.92.09,18.13.7.25.7.25Zm54.34.25h-.75l0-435.87c.87-.08.75-.21.75-.21v-18l-.5-1.12,1.16-1v-3.34l-1.33-1.2v-4.38l7.74-.06-.07,4.39-1.34,1.17v3.25l1.42,1.17-.54,1.16v18.09h.66V903.71l-6.37-.38C1308,903.58,1307.67,904.83,1307.67,904.83Z"/><path class="cls-12" d="M1222.72,1030.77h0Z"/><path class="cls-12" d="M1224.64,1030.75h0Z"/><path class="cls-12" d="M1220.75,1030.78h0Z"/><path class="cls-12" d="M1280.59,11h0Z"/><path class="cls-12" d="M1248.09,990.45c0-.3-2.36-69.65-2.83-83.42l6.54.29c.29,0,.63-1.41.71-1.54s.83,0,.83,0l0-1.16-.89,0a4.33,4.33,0,0,0-.75-1.5l-6.5.49V469h.66V450.86l-.54-1.16,1.42-1.17v-3.25l-1.33-1.17-.08-4.45,7.86.25.08-4.22-8,.19,0-2c-1.29-12.66-3.13-20.08-7-29.12s-11-18-13.46-20.25-4.29-2.71-6.29-2.67h.73c2.53,7.36,6.65,24.27,7.56,57.89,1.16,42.87.3,478.1.06,591l-1.68,0c14.27-.18,18.12-1,18.12-1a13.38,13.38,0,0,0,1.58-2c.13-.25.3-7.46.3-7.63s2.7-1.41,3.25-1.83a2,2,0,0,0,.5-1.42S1248.09,990.78,1248.09,990.45Z"/><path class="cls-12" d="M1284.27,1030.77h0Z"/><path class="cls-12" d="M1280.3,1030.78h0Z"/><path class="cls-12" d="M1286.17,1030.75h0Z"/><path class="cls-12" d="M1368.42,900.24l0-431.13s.67-.16.75-.33l.09-18-.59-1.17,1.25-1-.12-3.33-1.34-1.13-.08-10.33s-.71-6.08-1.46-11a78.32,78.32,0,0,0-8.71-24.42c-5-8.46-9.54-13.21-11.08-14.62a8,8,0,0,0-5.5-1.84h-.06c1.64,5.86,4.09,19.95,5.35,53.32,1.79,47.22.39,499.24.06,595.61,15-.16,19.48-1,19.48-1a10.17,10.17,0,0,0,2-2.62c.34-1,0-7.09,0-7.09s3.17-1.58,3.5-2.46S1368.42,900.24,1368.42,900.24Z"/><path class="cls-12" d="M1307,904.84,1307,469c.87-.08.75-.21.75-.21v-18l-.5-1.12,1.16-1v-3.34l-1.33-1.2v-4.38l-.08-4-.25-232.62a4.65,4.65,0,0,0,2.08-.92c.83-.58,3.25-5.25,4.38-7.08s1.95-6.09,1.95-6.09a14.38,14.38,0,0,0,2.55-7.29V78.43a105.05,105.05,0,0,0-10.8-39.38A98.2,98.2,0,0,0,1296,22.34c-3.73-4.67-6.8-7.89-8.71-9.16a12.59,12.59,0,0,0-6.59-2.17c4.89,6.19,12.54,21.28,14.76,56.25,3.33,52.67.75,108.08.75,108.08s-.42,15-8.05,24V1030.7l-1.67,0c14.63-.17,18.55-.93,18.55-.93l1.7-1.93.34-7.9a8.66,8.66,0,0,0,3.13-1.75c.33-.29.37-1.17.37-1.17L1307,905.89Z"/><path class="cls-2" d="M1277.63,11.23l-.86.2S1253.13,32.25,1246.38,75V182.88s1.62,13.12,10,19.75V1030s3.5.36,7.68.5V203.06a31.1,31.1,0,0,1-11.31-20V75.5S1261.63,27.66,1277.63,11.23Z"/><path class="cls-2" d="M1216.33,382s-16.95,15.39-20.45,50.64V1030s2.84.32,7,.46V432.38s1.87-37.57,14.79-50.56A5.87,5.87,0,0,0,1216.33,382Z"/><path class="cls-2" d="M1339.15,382s-16.9,15.33-20.4,50.58V1030s2.84.31,7,.45V432.37s1.88-37.57,14.8-50.55A8,8,0,0,0,1339.15,382Z"/><path class="cls-2" d="M2560,410V0H2291.13a62.62,62.62,0,0,0,29.72,15.69,66.29,66.29,0,0,0,30.92,36.91,120.87,120.87,0,0,0,72.84,179.77,65.25,65.25,0,0,0,46.93,83.26,67.27,67.27,0,0,0,18.59,89.17,41.13,41.13,0,0,0-2.7,69.33,138.52,138.52,0,0,0-45.84,226.32,92,92,0,0,0-8.44,146.17,54,54,0,0,0-22.27,80.5,64,64,0,0,0-40.11,59.37,64.72,64.72,0,0,0,.75,9.81,61,61,0,0,0-44.76,99.8,30,30,0,0,0-5.5,37.54,46.6,46.6,0,0,0-29.3,32.15,60,60,0,0,0-74.79,53.79,65.57,65.57,0,0,0-50.39,10.28A102.77,102.77,0,0,0,2013.19,1256a28.67,28.67,0,0,0-5.44-.53,28.24,28.24,0,0,0-25.48,16,77.49,77.49,0,0,0-98.28,37.69,26.92,26.92,0,0,0-3.49-.23,27.46,27.46,0,0,0-23.7,13.56,71,71,0,0,0-80.42,42.31,72.49,72.49,0,0,0-103.77,12.49,38.5,38.5,0,0,0-74,12.43,41,41,0,0,0-44.64-5.6,47.51,47.51,0,0,0-87.34-3.57,89.09,89.09,0,0,0-107.29-66.21,49.24,49.24,0,0,0-89.87-16.49,43.88,43.88,0,0,0-40.53,9.11l-1.23,0a36.51,36.51,0,0,0-34.06,49.63,77.8,77.8,0,0,0-10.25,12.69,44.24,44.24,0,0,0-49.77,18.49,104.09,104.09,0,0,0-106.39,16.48,62,62,0,0,0-72,2.6,87.52,87.52,0,0,0-133-14,92.88,92.88,0,0,0-85.08-19.35,89,89,0,0,0-130.93-6.28,31.5,31.5,0,0,0-42.76,3.6,83.42,83.42,0,0,0-58.71-24c-2.36,0-4.69.12-7,.31a147.17,147.17,0,0,0-173.41-98.26,80.81,80.81,0,0,0-88.16-63.3c0-.18,0-.34,0-.52a51,51,0,0,0-28.92-46A126.78,126.78,0,0,0,145.5,998.7a65.36,65.36,0,0,0-28.15-78.61A87.94,87.94,0,0,0,72.82,780,44.22,44.22,0,0,0,59.7,711a96.78,96.78,0,0,0-6.34-178.08A110.46,110.46,0,0,0,72.12,471.1a110.66,110.66,0,0,0-35-80.86,81.71,81.71,0,0,0,44.6-72.81A81.54,81.54,0,0,0,54,256.09,85.53,85.53,0,0,0,99.14,149a57,57,0,0,0,36.77-90.09,70.65,70.65,0,0,0,29.93,6.62A71,71,0,0,0,231.33,22a61,61,0,0,0,13.81,1.59A60.64,60.64,0,0,0,293.15,0H0V1440H2560V410Z"/><text class="cls-13" transform="translate(1263.36 754.83)">F<tspan x="0" y="43.85">A</tspan><tspan x="0" y="87.7">L</tspan><tspan x="0" y="131.55">C</tspan><tspan x="0" y="175.4">O</tspan><tspan x="0" y="219.25">N</tspan></text><text class="cls-14" transform="translate(1253.42 146.36)">FH</text></svg>