<?xml version="1.0" encoding="utf-8"?>
<!-- Generator: Adobe Illustrator 22.1.0, SVG Export Plug-In . SVG Version: 6.00 Build 0)  -->
<svg version="1.1" id="Layer_1" xmlns="http://www.w3.org/2000/svg" xmlns:xlink="http://www.w3.org/1999/xlink" x="0px" y="0px"
	 viewBox="0 0 2560 1440" style="enable-background:new 0 0 2560 1440;" xml:space="preserve">
<style type="text/css">
	.st0{fill:none;}
	.st1{fill:#FFFFFF;}
</style>
<title>Artboard 1</title>
<g>
	<path class="st0" d="M222,23.5c-4.8,0-9.6-0.6-14.3-1.6c-11.1,25.6-37.3,43.6-68,43.6c-10.7,0-21.3-2.2-31-6.6
		c7.5,9.7,11.5,21.6,11.5,33.8c0,28.4-21.5,51.9-49.7,56.3c3.5,9.3,5.3,19.2,5.3,29.2c0,34.6-21.4,64.4-52.2,77.9
		c17.6,15,28.8,36.9,28.8,61.3c0,31.8-18.8,59.3-46.3,72.8c22.3,20.3,36.3,49,36.3,80.9c0,22.1-6.8,43.7-19.5,61.8
		c37.7,13.9,64.5,49.1,64.5,90.4c0,38.8-23.8,72.3-58,87.7c15,7.3,25.3,22.2,25.3,39.5c0,11-4.2,21.5-11.7,29.5
		c38.4,10.4,66.6,44.3,66.6,84.7c0,20.3-7.2,39.9-20.4,55.4c19.9,11.4,33.3,32.3,33.3,56.2c0,7.6-1.4,15.2-4.1,22.4
		c40.4,21.6,67.7,63.1,67.7,110.7c0,10-1.2,19.9-3.6,29.6c17.7,8.3,30,25.8,30,46c0,0.2,0,0.3,0,0.5c3.1-0.3,6.2-0.5,9.4-0.5
		c40.3,0,74,27.3,82.2,63.8c11.4-2.5,23-3.8,34.7-3.8c68,0,125.6,42.9,145.2,102.2c2.4-0.2,4.8-0.3,7.3-0.3
		c22.6-0.1,44.4,8.5,60.9,24c11.8-12.2,30.8-13.8,44.4-3.6c0.7-0.7,1.4-1.3,2.2-2c39.2-34.6,99.1-30.9,133.7,8.3
		c8.3-2.2,16.8-3.3,25.3-3.3c23-0.1,45.3,7.9,63,22.6c2.6-2.4,5.3-4.6,8.1-6.6c41.6-30.2,99.7-21,129.9,20.6
		c22-16.2,51.7-17.2,74.7-2.6c19.6-15.8,44.1-24.4,69.3-24.3c14.1,0,28,2.6,41.1,7.8c8.7-12.8,23.1-20.4,38.6-20.3
		c4.4,0,8.8,0.6,13,1.8c3.1-4.6,6.7-8.8,10.6-12.7c-1.7-4.2-2.5-8.6-2.5-13.1c0-20.2,17-36.5,37.9-36.5h1.3c5.6-4.7,12.2-8,19.3-9.5
		c7.5-1.8,15.3-1.7,22.8,0.4c9.6-14.4,25.8-23,43.2-22.9c24.7,0,45.3,16.9,50.1,39.4c7-1.6,14.2-2.4,21.4-2.4
		c43.7,0,80.3,29.3,89.9,68.6c8.5-16.8,25.7-27.3,44.5-27.1c21.1,0,39.1,12.8,46.1,30.7c15.2-7.2,33.2-5,46.3,5.6
		c1.2-20.3,18.6-36.3,39.9-36.3c16-0.2,30.5,9.2,37,23.9c26.4-32.9,74.4-38.5,107.7-12.5c11.1-25.8,37.4-43.9,68.1-43.9
		c5.2,0,10.3,0.5,15.3,1.5c6-9.6,17-14.8,28.2-13.3c13.1-25.6,40.5-43.2,72.1-43.2c10.2,0,20.3,1.9,29.8,5.5
		c5.1-9.9,15.3-16.1,26.4-16c1.9,0,3.8,0.2,5.6,0.5c18.7-29.8,52.6-49.8,91.4-49.8c24.7-0.1,48.7,8.2,68,23.6
		c11.4-7.6,24.9-11.6,38.6-11.6c4.6,0,9.2,0.4,13.7,1.3c2.3-31.1,29.2-55.7,62.1-55.7c5.2,0,10.4,0.6,15.5,1.9
		c4.2-15.1,15.6-27.1,30.4-32.2c-2.9-4.6-4.4-10-4.4-15.4c0-8.5,3.7-16.6,10.1-22.1c-9.4-10.8-14.6-24.6-14.6-38.9
		c0-32.9,27.1-59.8,61-60.9c-0.5-3.2-0.8-6.5-0.8-9.8c0-26.9,17.2-49.9,41.6-59.4c-6.7-9-10.2-19.9-10.3-31.1
		c0-22,13.8-41,33.4-49.4c-20.4-16.9-33.4-41.9-33.4-69.9c0-31.8,16.7-59.8,42.2-76.2c-26-25.1-42.1-59.7-42.1-98
		c0-58.1,37.1-107.8,89.7-128.4c-5.7-3.7-10.3-8.7-13.5-14.7c-10.6-19.6-3.3-44.1,16.3-54.7c-17.6-12.2-29.2-32.2-29.2-54.7
		c0-12.2,3.4-24.1,9.9-34.5c-29.8-6.9-51.9-32.7-51.9-63.4c0-6.7,1.1-13.4,3.2-19.8c-54-13.5-93.8-60.8-93.8-117
		c0-22.2,6.3-44,18.3-62.8c-15-7.8-26.5-21-32.2-36.9c-11.5-2.4-22.1-7.8-30.8-15.7H271.8C259.7,15,241.3,23.7,222,23.5z"/>
	<path class="st1" d="M2345,0c8.7,7.9,19.3,13.3,30.8,15.7c5.7,15.9,17.2,29.1,32.2,36.9c-11.9,18.8-18.3,40.6-18.3,62.8
		c0,56.2,39.9,103.5,93.8,117c-2.1,6.4-3.2,13.1-3.2,19.8c0,30.8,22.1,56.6,51.9,63.4c-6.5,10.3-9.9,22.3-9.9,34.5
		c0,22.5,11.5,42.5,29.2,54.7c-19.6,10.6-26.9,35.1-16.3,54.7c3.2,5.9,7.9,11,13.5,14.7c-52.6,20.6-89.7,70.3-89.7,128.4
		c0,38.3,16.1,72.9,42.1,98c-25.4,16.5-42.2,44.5-42.2,76.2c0,28,12.9,53,33.4,69.9C2472.8,855,2459,874,2459,896
		c0,11.2,3.6,22.1,10.3,31.1c-24.4,9.5-41.6,32.5-41.6,59.4c0,3.3,0.3,6.6,0.8,9.8c-33.9,1.2-61,28-61,60.9
		c0,14.3,5.2,28.1,14.6,38.9c-6.4,5.6-10.1,13.6-10.1,22.1c0,5.4,1.5,10.8,4.4,15.4c-14.8,5-26.2,17.1-30.4,32.2
		c-5.1-1.3-10.3-1.9-15.5-1.9c-32.9,0-59.8,24.6-62.1,55.7c-4.5-0.9-9.1-1.3-13.7-1.3c-13.7,0-27.2,4-38.6,11.6
		c-19.3-15.4-43.3-23.7-68-23.6c-38.8,0-72.7,20-91.4,49.8c-1.9-0.3-3.8-0.5-5.6-0.5c-11.1-0.1-21.4,6.1-26.4,16
		c-9.5-3.7-19.6-5.5-29.8-5.5c-31.6,0-59,17.6-72.1,43.2c-11.2-1.4-22.2,3.8-28.2,13.3c-5.1-1-10.2-1.5-15.3-1.5
		c-30.7,0-57,18.1-68.1,43.9c-33.3-26-81.3-20.4-107.7,12.5c-6.5-14.6-21-24-37-23.9c-21.3,0-38.7,16-39.9,36.3
		c-13.1-10.6-31.1-12.8-46.3-5.6c-7-17.9-25-30.7-46.1-30.7c-18.8-0.2-36,10.4-44.5,27.1c-9.6-39.3-46.2-68.6-89.9-68.6
		c-7.2,0-14.4,0.8-21.4,2.4c-4.7-22.5-25.3-39.4-50.1-39.4c-17.3-0.1-33.6,8.5-43.2,22.9c-7.4-2.1-15.3-2.2-22.8-0.4
		c-7.1,1.6-13.7,4.8-19.3,9.5h-1.3c-20.9,0-37.9,16.3-37.9,36.5c0,4.5,0.9,9,2.5,13.1c-4,3.8-7.5,8.1-10.6,12.7
		c-4.2-1.2-8.6-1.8-13-1.8c-15.5-0.1-29.9,7.5-38.6,20.3c-13.1-5.2-27-7.8-41.1-7.8c-25.2-0.1-49.7,8.5-69.3,24.3
		c-23.1-14.6-52.7-13.6-74.7,2.6c-30.2-41.6-88.3-50.8-129.9-20.6c-2.8,2-5.5,4.3-8.1,6.6c-17.7-14.7-40-22.7-63-22.6
		c-8.5,0-17.1,1.1-25.3,3.3c-34.6-39.2-94.5-42.9-133.7-8.3c-0.7,0.6-1.5,1.3-2.2,2c-13.6-10.2-32.6-8.6-44.4,3.6
		c-16.5-15.5-38.3-24.1-60.9-24c-2.5,0-4.9,0.1-7.3,0.3c-19.7-59.3-77.2-102.2-145.2-102.2c-11.7,0-23.3,1.3-34.7,3.8
		c-8.2-36.5-41.8-63.8-82.2-63.8c-3.1,0-6.3,0.2-9.4,0.5c0-0.2,0-0.3,0-0.5c0-20.3-12.3-37.8-30-46c2.4-9.7,3.6-19.6,3.6-29.6
		c0-47.6-27.3-89.1-67.7-110.7c2.7-7.1,4.1-14.7,4.1-22.4c0-23.9-13.4-44.9-33.3-56.2c13.2-15.5,20.4-35.1,20.4-55.4
		c0-40.3-28.2-74.3-66.6-84.7c7.5-8,11.7-18.5,11.7-29.5c0-17.3-10.3-32.3-25.3-39.5c34.2-15.4,58-48.9,58-87.7
		c0-41.3-26.8-76.5-64.5-90.4c12.7-18.1,19.5-39.7,19.5-61.8c0-31.9-14-60.6-36.3-80.9c27.5-13.5,46.3-41,46.3-72.8
		c0-24.4-11.1-46.4-28.8-61.3c30.8-13.4,52.2-43.2,52.2-77.9c0-10-1.8-19.9-5.3-29.2c28.2-4.4,49.7-27.9,49.7-56.3
		c0-12.2-4.1-24.1-11.5-33.8c9.8,4.4,20.3,6.6,31,6.6c30.6,0,56.8-18,68-43.6c4.7,1.1,9.5,1.6,14.3,1.6c19.3,0.1,37.7-8.5,49.8-23.5
		H0v1440h2560V0H2345z"/>
</g>
</svg>
