<?xml version="1.0" encoding="utf-8"?>
<!-- Generator: Adobe Illustrator 22.1.0, SVG Export Plug-In . SVG Version: 6.00 Build 0)  -->
<svg version="1.1" id="Layer_1" xmlns="http://www.w3.org/2000/svg" xmlns:xlink="http://www.w3.org/1999/xlink" x="0px" y="0px"
	 viewBox="0 0 2560 1440" style="enable-background:new 0 0 2560 1440;" xml:space="preserve">
<style type="text/css">
	.st0{fill:url(#SVGID_1_);}
	.st1{fill:#FFFFFF;}
</style>
<title>Artboard 1</title>
<linearGradient id="SVGID_1_" gradientUnits="userSpaceOnUse" x1="1280" y1="5" x2="1280" y2="1929" gradientTransform="matrix(1 0 0 -1 0 1440)">
	<stop  offset="0" style="stop-color:#5064AD"/>
	<stop  offset="1" style="stop-color:#000000"/>
</linearGradient>
<rect class="st0" width="2560" height="1440"/>
<circle class="st1" cx="146.6" cy="177.1" r="7.5"/>
<circle class="st1" cx="322.1" cy="385.6" r="7.5"/>
<circle class="st1" cx="535.1" cy="385.6" r="7.5"/>
<circle class="st1" cx="622.1" cy="786.1" r="7.5"/>
<circle class="st1" cx="817.1" cy="640.6" r="7.5"/>
<circle class="st1" cx="1024.1" cy="817.6" r="7.5"/>
<circle class="st1" cx="377.6" cy="793.6" r="7.5"/>
<circle class="st1" cx="161.6" cy="606.1" r="7.5"/>
<circle class="st1" cx="124.1" cy="841.6" r="7.5"/>
<circle class="st1" cx="1169.6" cy="385.6" r="7.5"/>
<circle class="st1" cx="802.1" cy="240.1" r="7.5"/>
<circle class="st1" cx="1420.1" cy="184.6" r="7.5"/>
<circle class="st1" cx="1538.6" cy="483.1" r="7.5"/>
<circle class="st1" cx="1628.6" cy="825.1" r="7.5"/>
<circle class="st1" cx="1924.1" cy="682.6" r="7.5"/>
<circle class="st1" cx="2017.1" cy="393.1" r="7.5"/>
<circle class="st1" cx="2164" cy="145.6" r="7.5"/>
<circle class="st1" cx="2360.5" cy="360.1" r="7.5"/>
<circle class="st1" cx="2399.5" cy="726.1" r="7.5"/>
<circle class="st1" cx="2192.5" cy="1015.6" r="7.5"/>
<path class="st1" d="M596.2,451c-1.2,0-2.2,1-2.2,2.2c0,1.2,1,2.2,2.2,2.2c1.2,0,2.2-1,2.2-2.2c0,0,0,0,0,0
	C598.3,452,597.4,451,596.2,451z"/>
<path class="st1" d="M682.3,399.8c-1.2,0-2.2,1-2.2,2.2c0,1.2,1,2.2,2.2,2.2c1.2,0,2.2-1,2.2-2.2l0,0
	C684.5,400.8,683.5,399.8,682.3,399.8z"/>
<path class="st1" d="M891.3,342.3c-1.2,0-2.2,1-2.2,2.2c0,1.2,1,2.2,2.2,2.2c1.2,0,2.2-1,2.2-2.2l0,0
	C893.5,343.3,892.5,342.3,891.3,342.3z"/>
<path class="st1" d="M440.5,253c-1.2,0-2.2,1-2.2,2.2s1,2.2,2.2,2.2c1.2,0,2.2-1,2.2-2.2C442.7,254,441.7,253,440.5,253L440.5,253z"
	/>
<path class="st1" d="M195,262.3c-1.2,0-2.2,1-2.2,2.2s1,2.2,2.2,2.2s2.2-1,2.2-2.2l0,0C197.2,263.3,196.2,262.3,195,262.3z"/>
<path class="st1" d="M312.5,596.4c-1.2,0-2.2,1-2.2,2.2c0,1.2,1,2.2,2.2,2.2c1.2,0,2.2-1,2.2-2.2l0,0
	C314.6,597.4,313.7,596.4,312.5,596.4z"/>
<path class="st1" d="M794.6,781.8c-1.2,0-2.2,1-2.2,2.2c0,1.2,1,2.2,2.2,2.2c1.2,0,2.2-1,2.2-2.2c0,0,0,0,0,0
	C796.8,782.7,795.8,781.8,794.6,781.8z"/>
<path class="st1" d="M511,922.3c-1.2,0-2.2,1-2.2,2.2c0,1.2,1,2.2,2.2,2.2c1.2,0,2.2-1,2.2-2.2c0,0,0,0,0,0
	C513.2,923.3,512.2,922.3,511,922.3z"/>
<path class="st1" d="M57.8,435.8c-1.2,0-2.2,1-2.2,2.2c0,1.2,1,2.2,2.2,2.2s2.2-1,2.2-2.2S59,435.8,57.8,435.8L57.8,435.8z"/>
<path class="st1" d="M347.8,102.8c-1.2,0-2.2,1-2.2,2.2s1,2.2,2.2,2.2c1.2,0,2.2-1,2.2-2.2S349,102.8,347.8,102.8L347.8,102.8z"/>
<path class="st1" d="M989.8,100.7c-1.2,0-2.2,1-2.2,2.2s1,2.2,2.2,2.2c1.2,0,2.2-1,2.2-2.2c0,0,0,0,0,0
	C992,101.6,991,100.7,989.8,100.7C989.8,100.7,989.8,100.7,989.8,100.7z"/>
<path class="st1" d="M1650,65c-1.2,0-2.2,1-2.2,2.2s1,2.2,2.2,2.2c1.2,0,2.2-1,2.2-2.2C1652.2,66,1651.2,65,1650,65L1650,65z"/>
<path class="st1" d="M1577.8,252.5c-1.2,0-2.2,1-2.2,2.2s1,2.2,2.2,2.2c1.2,0,2.2-1,2.2-2.2C1580,253.5,1579,252.5,1577.8,252.5
	L1577.8,252.5z"/>
<path class="st1" d="M1412.6,515c-1.2,0-2.2,1-2.2,2.2s1,2.2,2.2,2.2c1.2,0,2.2-1,2.2-2.2C1414.8,516,1413.8,515,1412.6,515
	L1412.6,515z"/>
<path class="st1" d="M1908.8,480.9c-1.2,0-2.2,1-2.2,2.2s1,2.2,2.2,2.2c1.2,0,2.2-1,2.2-2.2C1911,481.9,1910,480.9,1908.8,480.9
	L1908.8,480.9z"/>
<path class="st1" d="M1876.8,281.8c-1.2,0-2.2,1-2.2,2.2c0,1.2,1,2.2,2.2,2.2c1.2,0,2.2-1,2.2-2.2
	C1879,282.8,1878,281.8,1876.8,281.8L1876.8,281.8z"/>
<path class="st1" d="M2207,151c-1.2,0-2.2,1-2.2,2.2c0,1.2,1,2.2,2.2,2.2c1.2,0,2.2-1,2.2-2.2c0,0,0,0,0,0
	C2209.2,152,2208.2,151,2207,151z"/>
<path class="st1" d="M2204.8,517.2c-1.2,0-2.2,1-2.2,2.2c0,1.2,1,2.2,2.2,2.2c1.2,0,2.2-1,2.2-2.2c0,0,0,0,0,0
	C2207,518.1,2206,517.2,2204.8,517.2C2204.8,517.2,2204.8,517.2,2204.8,517.2z"/>
<path class="st1" d="M2033.8,863.8c-1.2,0-2.2,1-2.2,2.2c0,1.2,1,2.2,2.2,2.2c1.2,0,2.2-1,2.2-2.2c0,0,0,0,0,0
	C2036,864.8,2035,863.8,2033.8,863.8z"/>
<path class="st1" d="M1659.8,1104.7c-1.2,0-2.2,1-2.2,2.2s1,2.2,2.2,2.2c1.2,0,2.2-1,2.2-2.2c0,0,0,0,0,0
	C1662,1105.6,1661,1104.7,1659.8,1104.7C1659.8,1104.7,1659.8,1104.7,1659.8,1104.7z"/>
<path class="st1" d="M1468.8,926.7c-1.2,0-2.2,1-2.2,2.2c0,1.2,1,2.2,2.2,2.2c1.2,0,2.2-1,2.2-2.2c0,0,0,0,0,0
	C1471,927.6,1470,926.7,1468.8,926.7C1468.8,926.7,1468.8,926.7,1468.8,926.7z"/>
<path class="st1" d="M930,1058.3c-1.2,0-2.2,1-2.2,2.2c0,1.2,1,2.2,2.2,2.2c1.2,0,2.2-1,2.2-2.2c0,0,0,0,0,0
	C932.2,1059.3,931.2,1058.3,930,1058.3z"/>
<path class="st1" d="M704.5,1106.8c-1.2,0-2.2,1-2.2,2.2c0,1.2,1,2.2,2.2,2.2c1.2,0,2.2-1,2.2-2.2S705.7,1106.8,704.5,1106.8
	L704.5,1106.8z"/>
</svg>
